<svg version="1.1" xmlns="http://www.w3.org/2000/svg" viewBox="0 0 1803.8065501575547 753.4771047034782" width="1803.8065501575547" height="753.4771047034782">
  <!-- svg-source:excalidraw -->
  
  <defs>
    <style class="style-fonts">
      @font-face {
        font-family: "Virgil";
        src: url("https://excalidraw.com/Virgil.woff2");
      }
      @font-face {
        font-family: "Cascadia";
        src: url("https://excalidraw.com/Cascadia.woff2");
      }
    </style>
    
  </defs>
  <rect x="0" y="0" width="1803.8065501575547" height="753.4771047034782" fill="#ffffff"></rect><g stroke-linecap="round" transform="translate(1044.6777392587537 11.584239475183267) rotate(0 193.8582128265507 365.90932377278233)"><path d="M0 0 C0 0, 0 0, 0 0 M0 0 C0 0, 0 0, 0 0 M0.1 6.06 C1.43 4.43, 3.08 2.74, 4.51 0.03 M-0.02 6.26 C1.47 4.51, 3.15 3.02, 5.13 0.49 M-0.8 10.68 C2.17 10.01, 3.52 5.29, 9.86 1.06 M0.47 12.45 C4.78 6.93, 8.43 3.15, 11.39 -0.18 M0.01 17.65 C4.09 10.58, 13.16 5.1, 15.91 -1.56 M0.85 17.81 C4.24 13.45, 8.89 7.67, 16.4 0.92 M1.26 22.62 C8.9 17.3, 16.09 5.94, 21.91 -1 M-0.05 23.68 C6.86 16.73, 10.43 12.2, 21.56 0.61 M0.93 32.21 C8.02 22.31, 11.46 16.04, 27.06 -1.19 M-0.86 30.93 C8 20.25, 17.21 10.72, 26.4 -0.1 M-1.68 35.26 C8.5 27.09, 19.92 15.94, 33.63 0.6 M-0.38 37.81 C8.61 27.01, 16.68 17.27, 32.66 -0.91 M1.52 42.03 C15.36 26.83, 25.97 12.67, 37.25 -0.64 M0.12 43.13 C13.54 25.23, 29 10.1, 35.95 -0.27 M1.1 49.83 C16.1 29.68, 31.38 11.83, 41.81 1.62 M-0.34 48.38 C15.06 32.17, 30.74 13.54, 42.61 -0.67 M0.41 54.97 C15.53 37.06, 34.25 14.62, 45.94 -1.17 M-0.29 55.31 C17.34 33.54, 35.81 11.95, 47.16 -0.73 M-1.97 62.2 C13.3 48.15, 22.65 33.84, 53.91 -1.43 M-0.3 61.78 C10.44 48.19, 20.17 35.15, 53.16 -0.35 M-1.99 68.67 C20.68 43.99, 40.39 21.6, 58.08 1.98 M-0.81 67.37 C18.44 47.58, 35.13 25.96, 58.65 1.1 M-0.34 73.53 C21.78 46.18, 45.84 20, 61.85 -1.03 M0.58 73.42 C25.66 46.44, 49.27 17.11, 63.06 -0.36 M1.19 77.52 C25.82 52.47, 47.37 23.89, 70.07 1.62 M0.81 80.19 C25.87 50.04, 50.38 21.97, 68.58 0.52 M0.05 84.98 C28.08 52.49, 54.76 20.96, 76.02 -0.59 M0.6 85.41 C18.04 64.8, 35.25 44.54, 75.1 -0.91 M1.31 91.22 C22.91 67.95, 44.58 39.45, 79.8 0.59 M0.88 91.14 C23.26 64.09, 47.22 34.93, 79.6 0.59 M-1.98 96.53 C26.86 67.5, 54.62 35.17, 83.28 -0.53 M-0.02 98.37 C32.32 59.21, 64.62 22.66, 85.06 -0.96 M-1.15 101.76 C30.97 67.71, 61.42 34.1, 88.59 1.75 M-0.61 104.08 C26.27 74.82, 51.73 45.19, 89.88 1.08 M1.87 109.91 C19.62 86.92, 40.9 61.87, 96.97 -0.2 M0.38 109.38 C20.62 87.88, 39.08 64.92, 94.76 -1.22 M0.77 114.13 C29.33 83.9, 55.75 53.93, 99.27 2 M0.32 115.08 C21.45 92.54, 41.58 68.8, 100.12 -0.48 M-0.63 123.13 C28.46 88.47, 61.13 55.46, 106.88 0.05 M0.03 121.54 C40.52 77.53, 81.37 31.17, 107.02 -1.19 M-2.17 129.14 C30.97 93.76, 59.64 59.61, 110.13 -1.73 M0.04 128.23 C39.53 81.9, 80.6 35.75, 110.52 0.15 M-1.57 133.51 C25.8 104.41, 52.29 77.19, 116.62 1.67 M-0.69 133.89 C36.73 91.62, 75.05 47.69, 116.01 0.62 M1.24 142.33 C36.77 99.11, 71.67 57.15, 120.91 1.51 M0.88 139.58 C24.94 112.63, 49.73 83.9, 121.81 0.96 M0.44 144.39 C44.6 98.46, 85.74 48.26, 128.24 -1.12 M1.14 145.25 C44.02 95.78, 89.36 44.08, 126.92 0.69 M0.64 150.76 C46.71 100.16, 91.89 44.26, 131 -1.16 M0.21 152.63 C51.22 94.24, 103.14 35.71, 132.26 0.59 M1.36 159.74 C31.58 118.87, 68.1 80.87, 136.43 1.08 M-0.66 158 C49.33 102.1, 99.08 45.85, 137.01 0.01 M0.94 163.17 C53.04 101.39, 109.41 37.34, 144.4 -0.96 M0.15 164.49 C39.88 118.82, 81.76 71.26, 142.6 -0.25 M1.24 171.7 C53.83 106.26, 110.45 42.01, 148.4 0.36 M-0.01 171.48 C43.33 121.38, 85.84 71.86, 148.86 -0.02 M-0.3 175.84 C57.39 109.09, 116.08 39.64, 154.24 -0.73 M-0.21 177.23 C49.72 120.74, 98.28 65.95, 153.08 -0.59 M1.03 182.57 C39.15 141.46, 75.81 96.5, 158.83 1.1 M-0.75 183.04 C47 131.14, 91 79.43, 158.07 0.23 M-0.52 190.48 C53.59 129.68, 106.52 69.37, 165.45 -1.24 M-0.59 188.64 C32.96 150.8, 66.21 111.5, 164.32 0.29 M0.14 195.23 C57.53 129.45, 115.38 60.5, 169.95 -0.18 M-0.35 194.25 C56.36 129.91, 112.52 64.18, 169.64 -0.12 M-1.53 202.48 C68.06 121.14, 139.63 44.35, 175.6 0.06 M0.33 201.94 C50.27 141.66, 100.85 81.94, 174.92 0.41 M0.76 206.01 C60.05 142.44, 115.98 77.1, 179.44 0.52 M-0.11 207.08 C39.78 160.42, 79.79 114.63, 180.19 -0.14 M1.26 213.73 C68.85 135.73, 136.9 58.01, 186.75 0.8 M0.4 213.02 C47.96 155.79, 98.93 98.19, 185.56 -0.61 M-0.77 219.99 C71.87 136.23, 144.5 52.41, 191.62 -0.07 M0.1 219.27 C76.44 133.8, 151.73 47.91, 190.52 0.44 M0.97 224.51 C49.64 169.73, 97.72 114.68, 197.36 -1.04 M0.54 225.94 C44.94 173.63, 90.79 121.74, 196.47 0.37 M-0.35 230.76 C49.13 170.46, 101.65 110.52, 200.43 -1.13 M0.45 231.57 C55.16 166.91, 110.08 103.71, 201.36 0.55 M-0.92 238.66 C81.28 145.86, 160.16 51.08, 207.13 -0.07 M0.15 237.25 C83.62 143.57, 164.45 49.78, 206.82 0.21 M-0.77 244.6 C57.56 177.95, 115.21 113.61, 212.15 0.15 M-0.35 243.73 C78.03 152.99, 155.9 62.89, 212.63 0.14 M-0.71 251.33 C49.28 193.83, 98.52 138.16, 218.16 0.15 M0.09 249.71 C46.27 196.88, 92.39 144.23, 218.26 -0.55 M1.14 255.57 C55.42 192.14, 108.81 127.57, 223.09 -1.15 M-0.45 255.36 C75.5 167.26, 150.76 80.52, 222.96 0.66 M0.36 262.19 C65.51 184, 134.34 105.59, 228 0.54 M0.39 262.35 C56.32 196.2, 114.24 130.42, 228.63 -0.33 M1.3 267.63 C51.66 208.94, 102.3 151.04, 232.94 0.42 M0.76 268.54 C75.95 179.33, 153.13 91.16, 233.08 0.29 M-0.25 274.87 C53.28 211.85, 110.51 148.27, 238.58 0.14 M-0.09 274.64 C72.25 188.88, 145.1 105.15, 237.65 0.92 M0.2 279.96 C75.33 193.08, 149.12 109.6, 243.02 0.24 M0.35 281.3 C62.14 207.79, 125.33 135.07, 243.67 0.08 M-0.22 285.21 C99.51 172.97, 197.67 60.6, 249.47 -0.36 M0.69 286.85 C72.17 203.91, 144.39 120.04, 248.47 -0.25 M0.98 293.31 C63.04 221.82, 122.64 152.16, 254.68 0.95 M0.4 293.22 C80.07 199.24, 160.64 105.59, 254.69 0.48 M0.36 298.39 C54.49 236.21, 107.03 175.51, 260.54 -0.66 M0.4 298.75 C90.11 195.66, 180.85 91.61, 259.38 0.28 M-0.26 305.8 C70.82 224.37, 140.24 143.63, 265.94 0.81 M-0.51 305.27 C71.27 221.83, 143.01 138.01, 265 -0.25 M-0.08 311.24 C65.45 237.13, 130.76 162.67, 270.82 0 M-0.25 311.05 C91.25 205.28, 183.46 98.54, 269.8 -0.28 M0.99 316.35 C57.29 250.49, 112.95 186.1, 275.4 0.02 M0.51 316.39 C98.81 204.72, 197.89 91.54, 275.25 0.3 M-0.75 322.66 C86.55 222.06, 173.64 122.74, 281.37 0.14 M-0.36 322.86 C100.04 208.23, 198.79 93.93, 281.06 0.29 M0.01 328.2 C113.7 199.58, 226.23 69.25, 287.27 -0.71 M0.46 329.16 C109.62 201.58, 219.15 75.69, 286.03 0.19 M0.5 334.29 C114.46 200.73, 231.45 67.89, 291.77 -0.45 M0.05 335.53 C116.47 201.85, 232.73 69.18, 291.55 -0.28 M-1.16 341.82 C110.88 212.34, 221.14 83.71, 297.44 0.64 M-0.6 341.48 C70.15 259.66, 140.36 178.94, 297.3 -0.62 M0.5 346.39 C100.16 234.81, 198.31 123.15, 301.45 -0.01 M0.11 347.32 C92.63 241.55, 184.84 134.41, 301.6 0.28 M0.69 353.68 C118.16 216.39, 236.68 81.71, 307.41 -1.12 M-0.09 353.52 C114.91 219.85, 230.41 87.16, 307.22 -0.23 M-0.4 359.59 C85.26 262.04, 168.16 165.4, 312.39 0.2 M0.01 359.59 C75.77 274.35, 150.52 187.35, 312.63 0.11 M0.16 365.49 C82.51 270.94, 164.78 176.34, 318.57 -0.24 M0 365.52 C106.06 245.5, 210.91 124.98, 318.2 -0.02 M-0.72 371.44 C83.5 275.73, 168.31 178.67, 322.57 0.86 M-0.33 372.18 C120.13 232.38, 241.51 92.33, 323.01 -0.29 M-0.24 378.05 C113.23 246.34, 228.74 115.33, 328.18 0.15 M0.01 377.41 C67.27 301, 134.28 224.35, 328.93 -0.2 M0.37 384.54 C90.44 280.46, 181.15 175.18, 334.13 0.16 M0.08 384.55 C73.76 300.41, 146.33 216.48, 334.06 0.18 M0.54 389.68 C131.86 236.52, 264.07 84.72, 338.76 0.31 M0.42 389.75 C127.19 242.93, 254.81 96.18, 339.51 -0.45 M0.53 396.66 C119.22 259.75, 237.84 124.05, 344.07 -0.37 M-0.06 396.42 C99.55 281.47, 200.25 165.12, 344.36 -0.36 M-0.49 402.76 C80.84 310.87, 160.51 218.67, 349.86 -0.06 M0.08 402.61 C71.09 320.61, 141.73 239.91, 349.35 0.32 M0.65 408.53 C90.91 305.24, 181.04 202.37, 354.82 -0.11 M0.21 408.47 C90.38 303.71, 180.74 199.88, 355.15 0.16 M-0.54 414.99 C113.54 285.72, 224.42 156.17, 360.03 0.9 M-0.01 414.44 C109.82 289.91, 217.88 165.34, 360.25 0.66 M-0.44 421.22 C85.87 321.48, 173.94 221.74, 365.41 0.02 M-0.03 421.04 C138 262.39, 275 104.97, 365.86 0.09 M-0.6 426.35 C140.88 262.36, 284.79 98.65, 370 -0.29 M-0.18 427.09 C102.99 309.1, 204.38 191.68, 370.45 0.67 M0.61 432.34 C106.05 308.88, 213 185.89, 377.03 -0.1 M-0.5 433.09 C95.28 324, 190.67 214.71, 376.12 0.07 M-0.42 438.46 C76.77 347.94, 154.42 258.04, 381.38 -0.23 M0.07 439.12 C150.68 265.07, 300.86 91.79, 381.62 0.19 M0.59 444.59 C90.32 342.99, 177.55 241.08, 387.47 -0.57 M-0.08 445.55 C118.89 306.45, 238.91 168.88, 387 0.24 M-0.61 452.12 C83.48 354.27, 168.42 258.14, 389.97 2.35 M-0.39 451.75 C120.28 313.98, 239.69 176.89, 390.3 2.22 M-0.46 457.12 C102 340.75, 204.32 222.41, 391.09 7.62 M-0.2 457.07 C110.79 329.29, 223.28 199.96, 390.11 8.14 M-0.85 463.5 C108.45 342.23, 214.09 220.79, 390.39 15.2 M-0.52 463.83 C126.77 315.19, 255.08 168.15, 390.44 14.73 M0.88 468.69 C88.66 368.24, 176.03 267.19, 389.99 20.66 M0.51 469.2 C140.9 306.63, 280.65 145.69, 390.45 20.36 M0.23 475.81 C129.89 329.68, 259.02 180.6, 390.12 25.95 M0.15 475.96 C136.79 316.16, 274.5 157.73, 390.28 26.84 M0.36 482.45 C120.09 343.41, 239.15 205.78, 390.35 32.26 M-0.41 481.94 C82.67 386.09, 165.05 291.63, 390.32 33.3 M0.43 487.53 C132.79 334.72, 267.12 181.43, 389.91 38.02 M-0.23 487.88 C135.69 333, 270.59 178.62, 390.72 38.76 M-0.92 494.06 C139.5 335.33, 278.8 175, 390.41 45.67 M0.14 494.34 C142.22 333.8, 282.52 171.88, 390.49 45.17 M0.53 500.37 C143.33 335.06, 286.74 169.54, 389.88 50.49 M0.27 499.64 C96.06 389.19, 191.81 279.34, 390.3 50.81 M0.38 506.69 C141.82 340.98, 283.38 177.5, 390.24 57.59 M0.1 506.17 C95.14 394.44, 191.4 283.54, 389.98 57.12 M-0.34 512.78 C105.33 391.49, 208.41 272.63, 389.71 62.76 M-0.05 512.71 C101.89 395.28, 205.42 276.06, 389.69 63.73 M0.41 517.55 C151.37 345.2, 300.83 173.84, 390.36 68.8 M0.07 517.77 C127.04 368.33, 256.11 220.74, 390.68 69.06 M0.29 524.19 C154.39 345.58, 309.01 167.09, 390.41 75.6 M-0.31 524.23 C153.92 350.41, 305.93 175.5, 389.93 75.32 M-0.47 530.66 C81.22 436.54, 163.22 342.68, 390.27 80.89 M-0.12 530.36 C153.93 350.94, 308.78 173.6, 390.67 80.78 M0.31 537.07 C124.16 389.82, 249.03 246.42, 389.61 86.86 M0.18 536.65 C110.01 408.66, 219.75 282.96, 390.52 87.72 M-0.76 542.44 C115.52 410.87, 228.49 278.57, 390.2 94.59 M-0.13 543.21 C96.98 429.05, 195.67 314.78, 390.39 93.92 M-0.33 548.37 C118.81 412.38, 238.51 274.71, 389.81 98.84 M0.21 548.79 C146.16 382.42, 291.5 215.73, 390.79 99.23 M-0.82 555.4 C93.32 449.11, 185.05 343.34, 389.73 106.02 M-0.01 555.01 C90.54 448.9, 181.9 343.19, 390.07 106.16 M0.48 560.66 C82.35 464.2, 165.8 368.6, 390.46 111.86 M0.34 560.97 C142.96 396.74, 285.79 232.62, 390.51 111.8 M0.41 567.59 C112.3 436.34, 226.69 305.18, 391.08 118.35 M0.2 567.24 C113.87 433.88, 228.75 301.79, 390.14 117.73 M-0.79 574.05 C82.59 480.72, 164.38 385.36, 389.77 124.19 M-0.5 573.72 C134.87 420.01, 269.08 265.9, 390.37 124.28 M0.84 579.87 C103.36 459.79, 205.78 340.19, 389.7 130 M0.34 579.07 C122.29 439.41, 244.26 298.5, 390.32 130.39 M-0.33 585.63 C102.44 465.05, 205.75 346.65, 389.71 136.28 M-0.4 585.25 C99.89 467.94, 201.77 351.39, 390.27 136.13 M0.16 591.13 C82.34 497.65, 164.62 402.09, 390.42 142.64 M-0.14 591.01 C153.8 416.89, 306.16 241.16, 390.94 142.21 M0.29 597.94 C97.95 485.98, 194.95 374.06, 389.63 148.02 M-0.43 597.89 C95.35 491.62, 188.66 383.39, 390.5 148.34 M0.01 604.63 C134.78 451.39, 266.79 299.39, 390.01 154.67 M-0.06 603.6 C137.87 445.8, 277.12 286.02, 390.25 155.09 M0.75 610.39 C91.1 503.33, 182.01 400.43, 389.77 159.78 M0.02 609.92 C110.4 483.09, 220.81 355.82, 390.07 160.88 M-0.65 616.18 C122.43 476.7, 244.76 335.95, 390.2 167.05 M0.16 615.6 C101.05 499.36, 200.66 384.56, 389.92 166.59 M0.5 622.4 C151.87 449, 303.43 273.51, 391.32 172.34 M0.54 621.51 C142.19 457.44, 285.88 292.93, 390.34 172.2 M-0.61 627.46 C133.21 475.92, 264.9 323.73, 389.73 179.02 M-0.29 628.14 C104.57 510.11, 207.82 391.55, 390.61 178.79 M-1.06 634.97 C113.75 501.93, 227.57 372.42, 390.23 185.24 M-0.5 634.3 C132.01 483.88, 262.07 334.16, 390.05 185.18 M0.57 640.6 C108.36 514.26, 219.28 387.26, 390.99 190.68 M0.47 639.69 C147.68 469.84, 295.3 299.68, 390.28 190.94 M0.43 646.83 C83.62 547.77, 168.88 449.96, 390.19 197.78 M0.24 646.33 C79.18 554.74, 159.53 462, 389.92 197.36 M-0.46 651.77 C138.79 494.22, 276.09 334.92, 390.56 202.94 M0.31 652 C124.14 511.66, 246.97 369.77, 390.28 202.97 M-0.06 658.19 C95.09 548.89, 191.47 438.72, 389.92 209.52 M0.31 658.62 C106.38 532.16, 214.28 408.5, 390.7 209.82 M0.44 665.48 C88.18 566.2, 173.77 465.6, 390.54 215.87 M0.04 664.89 C86.23 566.34, 171.91 467.16, 390.3 215.85 M0.87 670.12 C136.39 511.65, 274.43 354.32, 389.77 221.3 M0.16 670.92 C85.52 574.69, 169.21 478.14, 390.59 221.38 M-0.8 676.4 C118.8 539.18, 238.36 402.16, 390.79 228.1 M0.08 676.79 C141.66 514.65, 281.01 354.32, 389.82 228.2 M0.82 682.91 C124.81 538.86, 248.88 394.32, 390.28 233.55 M0.42 682.86 C140.81 523.26, 280.58 361.95, 390.61 233.76 M-0.44 689.08 C105.44 567.62, 211.86 445.35, 390.61 240.53 M0.05 688.9 C87.72 590.27, 173 491.59, 390.17 239.59 M-0.26 696.01 C90.71 591.17, 181.89 486.32, 390.73 246.29 M0.09 695.15 C88.68 594.8, 175.63 494.31, 390.33 246.32 M0.5 701.31 C133.75 548.12, 267.59 394.84, 390.51 252.51 M0.25 700.95 C84.5 601.91, 169.7 503.87, 390.3 251.92 M0.1 707.42 C147.24 542.39, 291.23 375.35, 390.96 258.46 M-0.48 707.7 C156.77 527.94, 311.6 348.71, 390.09 258.25 M-0.41 713.71 C150.81 540.7, 303.16 366.54, 390.8 263.42 M0.59 713.17 C151.37 536.4, 304.18 361.02, 390.62 264.18 M0.61 719.01 C124.54 576.33, 250.59 431.3, 389.81 270.09 M0.11 719.8 C92.31 611.29, 187.17 502.78, 390.68 270.31 M-0.48 726.46 C89.82 621.67, 180.53 517.23, 390.13 277.4 M-0.48 725.83 C114.69 592.81, 231.1 459.41, 390.24 276.84 M-0.37 731.12 C105.94 608.62, 214.11 485.3, 390.18 281.69 M0.13 731.46 C153.65 557.52, 305.79 382.59, 390.72 282.19 M3.65 734.93 C140.24 575.57, 277.93 417.07, 390.51 288.33 M2.75 734.48 C128.33 592.04, 252.81 449.65, 390.07 289.17 M7.97 735.03 C127.55 598.19, 247.99 460.31, 390.49 294.9 M7.93 734.75 C103.3 625.91, 198 516.63, 389.81 295.22 M13.37 734.79 C154.64 571.51, 295.75 406.8, 390.95 301.18 M13.88 733.85 C152.47 573.07, 291.65 413.24, 390.07 301 M19.09 734.75 C139.94 591.9, 263.42 450.85, 389.72 307.14 M18.93 734.29 C131.34 606.93, 243.42 478.02, 389.93 307.39 M24.59 733.4 C162.79 572.58, 302.42 412.69, 390.91 312.17 M24.03 734.43 C159.95 577.82, 296.56 420.18, 390.64 313.32 M28.9 734.47 C144.15 600.86, 258.65 468.38, 390.69 320.08 M29.39 734.42 C100.75 649.89, 174.41 565.96, 390.27 319 M35.02 733.45 C175.48 571.82, 315.76 411.64, 389.79 325.49 M34.74 733.74 C173.81 576.62, 310.89 418.77, 390.13 325.33 M39.69 734.56 C136.17 624.75, 230.83 515.34, 390.62 331.06 M39.99 734.73 C136.36 622.48, 234.62 510.27, 390.3 331.73 M45.75 734.02 C149.98 614.61, 253.6 495.05, 390.34 338.27 M45.53 733.75 C144.29 620.14, 243.41 507.22, 390.29 337.51 M50.35 733.83 C145.24 625.14, 240.78 515.61, 390.95 342.64 M50.44 734.31 C130.55 641.17, 209.96 548.95, 390.3 343.34 M55.01 735.38 C166.59 608.29, 275.83 480.56, 390.72 349.13 M55.32 734.92 C145.76 628.01, 237.04 523.36, 390.27 350.05 M61.95 735.08 C142.92 640.37, 222.52 547.78, 389.45 356.14 M61.43 734.53 C140.98 642.33, 221.26 550.48, 390.28 356.04 M66.38 735.13 C185.66 594.73, 304.72 456.44, 389.54 362.34 M66.15 734.29 C186.21 594.8, 307.14 456.62, 390.51 361.91 M72.18 734.76 C188.81 601.15, 304.21 469.63, 390.03 367.79 M71.87 734.7 C152.19 641.42, 232.16 548.85, 389.84 368.26 M77.73 735.17 C157.32 640.27, 238.23 548.02, 390.88 373.32 M76.52 734.52 C178.84 614.92, 282.83 496.03, 390.88 373.5 M82.42 734.89 C154.66 652.45, 225.53 569.65, 390.01 380.67 M82.47 733.86 C171.34 632.72, 258.61 531.49, 390.25 380.42 M87.48 734.54 C172.56 639.86, 257.17 543.74, 389.69 386.46 M87.7 734.8 C183.35 624.33, 279.53 512.96, 390.33 386.37 M92.25 734.19 C198.66 613.17, 304.63 492.5, 389.99 392.37 M92.94 734.07 C192.53 618.77, 292.34 503.5, 390.12 392.18 M98.84 734.52 C177.77 644.52, 254.93 553.64, 390.31 397.95 M98.32 734.21 C167.01 657.36, 235.46 578.92, 389.94 398.91 M103.91 734.1 C172.74 656.59, 239.36 579.59, 390.92 403.46 M104.15 733.7 C185.21 643.98, 263.96 552.64, 390.25 404.76 M109.76 734.15 C201.98 629.48, 295.06 522.83, 389.4 409.85 M108.26 734.38 C217.54 609.42, 328.36 482.5, 390.58 411.05 M113.48 734.28 C190.78 646.5, 267.44 559.34, 390.4 418.1 M114.83 734.3 C209.33 626.32, 304.75 515.62, 389.9 417.37 M119.09 734.98 C197.84 643.44, 276.54 553.23, 391.02 422.69 M119.59 734.11 C182.99 663.1, 247.19 589.89, 390.08 422.77 M125.92 733.23 C200.17 648.87, 272.83 563.99, 390.07 429.4 M124.78 734.27 C194.71 655.67, 264.21 576.41, 389.73 429.52 M130.29 733.75 C198.69 657.36, 265.81 581.23, 390.59 434.8 M129.63 734.99 C187.05 667.12, 246.28 599.1, 390.07 434.44 M135.21 733.82 C227.24 628.21, 316.16 524.51, 391.17 441.6 M135.88 734.45 C213.49 642.32, 292.2 551.06, 390.68 440.98 M141.84 734.34 C208.5 657.57, 275.89 578.46, 390.04 448.57 M141.19 734.23 C231.51 630.78, 319.98 528.79, 389.79 447.12 M147.28 733.42 C198.37 673.28, 251.03 612.07, 391.32 453.4 M145.77 734.47 C208.09 663.34, 270.44 590.76, 390.33 453.83 M152.15 733.29 C204.88 672.78, 259.26 610.46, 390.94 459.43 M150.73 734.31 C207.41 670.49, 264.07 604.83, 390.1 460.12 M156.06 733.98 C220.37 660.51, 283.05 587.15, 389.29 466.48 M156.44 734.32 C211.83 669.84, 267.43 607.25, 390.95 465.51 M160.97 734.99 C246.73 637.41, 331.91 539.36, 391.26 471.09 M161.92 734.39 C206.41 682.04, 253.25 628.18, 390.16 472.38 M168.05 734.6 C242.49 650.21, 314.92 564.52, 391.3 477.56 M167.31 734.61 C224.03 667.96, 282.07 601.47, 389.94 478.62 M173.83 733.07 C219.98 681.31, 264.02 628.63, 389.03 484.34 M172.96 734.33 C219.51 682.24, 266.44 629.17, 390.78 483.6 M178.7 734.65 C243.28 659.43, 309.01 586.54, 388.98 489.48 M177.98 734.17 C242.67 658.04, 308.05 582.1, 390.45 489.8 M181.91 734.94 C266.01 640.4, 347.21 545.71, 391.5 495.84 M183.17 734.13 C254.88 652.68, 326.63 570.4, 390.42 496.09 M187.32 734.46 C251.01 660.38, 317.16 588.08, 390.93 501.6 M187.66 733.95 C238.54 678.29, 286.77 623.66, 390.43 502.87 M192.92 733.83 C237.95 682.84, 284.69 632.14, 391.37 508.38 M193.96 734.71 C256.38 664.86, 317.18 594.06, 389.26 507.97 M199.51 733.58 C272.87 650.85, 343.76 569.79, 391.78 513.07 M198.82 734.72 C253.68 671.45, 308.19 609.19, 389.73 514.07 M205.52 734.89 C271.25 654.6, 340.85 577.09, 389.41 521.32 M203.95 734.23 C266.91 662.48, 329.34 590.76, 389.96 520.56 M210.43 733.06 C265.43 669.2, 318.43 605.88, 391.86 525.25 M210.05 734.06 C272.21 665.13, 333.6 594.64, 390.55 526.22 M215.33 733.78 C268.01 670.12, 323.53 610.5, 390.29 533.25 M215.5 734.73 C263.92 678.79, 312.15 622.93, 389.85 532.14 M220.54 734.14 C258.18 689.95, 298.15 647.13, 389.71 538.06 M219.34 734.6 C269.17 679.48, 318.72 623.85, 389.92 538.69 M225.89 732.94 C279.37 672.79, 332.3 611.52, 391.53 543.38 M226.43 733.85 C275.48 675.23, 326.1 617.39, 390.34 544.54 M231.55 733.27 C268.3 689.28, 307.85 644.19, 389.4 551.58 M231.47 734.15 C273.79 685.09, 317.98 634.4, 390.7 551.09 M234.88 734.32 C284.18 679.01, 330.66 624.85, 389.82 557.56 M236.78 734.96 C271.47 693.87, 306.09 654.22, 390.91 557.13 M241.55 733.31 C274.09 698.15, 303.21 662.36, 388.71 562.37 M241.19 734.27 C275.07 693.74, 310.83 653.88, 390.56 563.91 M245.33 734.08 C294.29 681.03, 341.46 624.92, 388.98 571.07 M246.63 733.43 C298.04 676.05, 347.77 618.86, 390.8 569.68 M253.2 735.72 C296.32 683.41, 340.43 629.16, 389.81 575.45 M251.8 734.72 C301.94 680, 350.91 624.03, 390.27 574.4 M257.49 734.17 C298.49 684.05, 340.33 636.55, 391.35 583.34 M256.98 734.09 C287.94 699.24, 318.54 663.6, 390.73 582.02 M261.67 735 C302.87 688.11, 347.38 638.66, 390.05 586.4 M263.03 734.05 C288.09 705.47, 312.64 675.73, 390.76 586.95 M266.35 734.04 C308.59 689.38, 344.42 644.49, 391.47 594.49 M269.03 733.28 C309.33 685.8, 350.34 638.53, 389.84 594.42 M274.54 734.06 C313.64 688.62, 351 643.7, 390.17 601.79 M272.99 734.25 C300.97 705.03, 326.49 673.15, 389.46 599.08 M278.77 732.07 C303.12 701.64, 331.26 672.58, 390.67 607.43 M279.14 734.05 C318.95 687.32, 361.02 639.84, 389.44 604.79 M283.53 732.75 C325 685.97, 368.11 637.16, 391.29 611.22 M283.24 734.25 C308.93 703.98, 336.24 673.34, 389.71 611.74 M287.58 736.46 C323.24 692.73, 361.36 650.3, 392.46 619.71 M288.81 734.51 C322.94 693.84, 357 653.98, 391.51 617 M293.64 732.8 C325.66 698.72, 356.21 664.74, 389.13 625.53 M293.87 734.65 C329.56 695.48, 361.86 657.14, 389.88 623.46 M300.09 736.19 C317.52 713.31, 335.7 688.75, 391.05 629.44 M298.57 733.76 C324.38 704.19, 349.71 676.03, 390.83 630.32 M305.32 735.93 C325.92 711.71, 344.37 687.43, 390.5 635.86 M304.49 734.79 C323.1 713.69, 339.46 692.92, 391.05 636.26 M308.1 735.52 C329.6 712.11, 349.12 691.58, 392.04 642.51 M311.01 735.39 C339.11 700.96, 368.41 668.39, 390.63 643.51 M316.53 733.93 C340.33 707.29, 361.51 680.97, 390.71 648.38 M315.24 733.75 C341.69 704.12, 367.94 675.56, 391.27 647.42 M320.52 732.97 C346.68 702.01, 374.18 673.33, 390.57 655.11 M320.4 735.47 C347.01 705.86, 371.93 676.1, 389.72 654.33 M324.67 734.58 C347.69 710.03, 368.78 683.14, 390.88 659.02 M325.75 733.35 C343.21 714.14, 360.71 694.37, 390 661.17 M332.75 736.13 C351.81 713.62, 369.12 690.07, 391.89 664.69 M331 734.3 C343.12 721.58, 356.24 706.73, 390.08 667.51 M336.62 735.73 C356.95 711.81, 380.81 684.86, 390.53 672.51 M336.19 735.13 C358.19 709.47, 379.32 685.36, 389.63 672.73 M340.66 735.59 C361.19 712.32, 375.66 695.53, 388.72 676.74 M342.12 735.43 C353.06 723.11, 363.7 710.71, 391.19 678.53 M346.72 735.25 C363.4 717, 381.25 695.9, 389.74 684.85 M348.24 733.38 C357.55 720.71, 369.03 709.83, 390.64 685.82 M354.57 734.98 C368.03 716.51, 382.56 703.08, 390.59 691.55 M353.06 734.63 C362.87 722.33, 372.31 710.98, 390.4 691.33 M358.79 733.03 C367.23 724.13, 374.42 715.91, 389.66 698.34 M358.07 734.11 C367.14 724.81, 376.43 714.1, 391.16 696.64 M361.27 732.97 C373.23 726.13, 382.66 714.13, 388.47 703.15 M364.14 734.9 C368.54 727.77, 374.68 721.39, 390.54 704.35 M368.1 732.99 C375.94 728.26, 382.02 721.71, 389.95 708.29 M369.41 734.07 C374.74 726.99, 381.83 719.63, 391.34 709.61 M374.04 733.24 C377.98 730.05, 382.81 724.54, 388.84 713.88 M373.71 733.5 C378.28 729.69, 383.04 724.65, 390.98 716.02 M379.44 733.29 C380.97 730.96, 383.9 728.42, 390.04 721.84 M380.28 733.81 C382.45 730.02, 386.33 725.43, 389.76 721.32 M383.65 734.46 C386.72 732.82, 388.09 729.45, 390.35 728.4 M384.78 734.62 C386.19 732.67, 388.03 730.69, 390.8 727.22" stroke="#ffffff" stroke-width="0.5" fill="none"></path><path d="M-0.78 -0.68 C100.46 2.22, 198.46 2.74, 387.85 -0.8 M0.03 -0.23 C139.37 -0.28, 278.33 -0.06, 387.47 0.37 M388.04 -0.7 C386.12 266.82, 386.19 532.9, 387.02 731.42 M388 -0.05 C387.31 158.92, 387.15 317.36, 387.54 731.54 M387.49 732.09 C245.27 729.41, 103.55 729.78, -0.8 732.43 M387.19 731.29 C278.16 730.21, 168.93 730.21, 0.46 731.71 M-0.19 732.52 C-1.66 510.47, -2.86 288.57, 0.72 0.4 M-0.34 731.78 C0.64 466.53, 0.61 201.35, 0.32 0.18" stroke="#1e1e1e" stroke-width="1" fill="none"></path></g><g stroke-linecap="round" transform="translate(1045.251783048474 118.17131190144278) rotate(0 192.16643170845418 249.25430913086103)"><path d="M1.47 -1.93 L383.63 1.32 L385.49 498.53 L0.93 500.4" stroke="none" stroke-width="0" fill="#ffffff"></path><path d="M-0.73 1.1 C98.27 1.32, 193.71 1.04, 384.76 -0.57 M-0.54 0.52 C107.69 -0.61, 216.97 -0.54, 384.23 -0.09 M383.88 0.41 C384.52 135.22, 384.51 269.65, 384.15 499.1 M384.66 0.39 C383.12 185.11, 383.28 370.01, 384.63 498.54 M384.29 498.83 C284.98 498.61, 185.55 498.96, 1.14 498.18 M384.73 498.15 C258.53 500.63, 132.4 500.28, -0.16 498.8 M0.47 498.95 C-0.06 385.18, -0.01 271.86, -0.14 0.44 M-0.36 498.75 C-0.6 397.88, -0.54 297.47, 0.23 -0.2" stroke="#2f9e44" stroke-width="4" fill="none"></path></g><g stroke-linecap="round"><g transform="translate(1242.3300119541418 118.92368269025326) rotate(0 -4.190862452085639 247.80563791776711)"><path d="M-0.39 -0.78 C-1.9 107.59, -3.95 213.75, -7.52 496.23 M-0.34 0.11 C-0.44 105.37, -2.41 211.24, -8.04 496.39" stroke="#9c36b5" stroke-width="4" fill="none"></path></g></g><mask></mask><g stroke-linecap="round"><g transform="translate(1243.7132628666932 170.76887898027792) rotate(0 157.68355712937046 -0.43027877370735723)"><path d="M0.36 0.19 C81.21 -0.75, 162.84 -1.64, 315.01 -0.33 M0.44 0.58 C113.5 1.26, 227.53 0.32, 314.6 -1.66" stroke="#9c36b5" stroke-width="4" fill="none"></path></g><g transform="translate(1243.7132628666932 170.76887898027792) rotate(0 157.68355712937046 -0.43027877370735723)"><path d="M287.11 9.36 C293.88 6.15, 301.8 2.62, 314.82 -0.16 M287.21 9.91 C296.37 6.18, 306.9 1.67, 314.26 -2.04" stroke="#9c36b5" stroke-width="4" fill="none"></path></g><g transform="translate(1243.7132628666932 170.76887898027792) rotate(0 157.68355712937046 -0.43027877370735723)"><path d="M286.75 -11.15 C293.69 -9.08, 301.7 -7.32, 314.82 -0.16 M286.86 -10.61 C296.15 -6.92, 306.8 -4.02, 314.26 -2.04" stroke="#9c36b5" stroke-width="4" fill="none"></path></g></g><mask></mask><g transform="translate(1580.308883438449 156.0705892097959) rotate(0 76.171875 12)"><text x="0" y="0" font-family="Cascadia, Segoe UI Emoji" font-size="20px" fill="#f08c00" text-anchor="start" style="white-space: pre;" direction="ltr" dominant-baseline="text-before-edge">Client Height</text></g><g stroke-linecap="round"><g transform="translate(1139.4835837741375 10.073489796823992) rotate(0 -2.5328701072139665 366.88379803824444)"><path d="M0.22 0.57 C-2.36 243.21, -4.3 485.09, -5.74 732.95 M-0.17 0.36 C1.69 156.73, 0.67 313.63, -5.03 733.4" stroke="#9c36b5" stroke-width="4" fill="none"></path></g></g><mask></mask><g stroke-linecap="round"><g transform="translate(1141.1834948551223 59.03092892918187) rotate(0 238.352940383048 1.2096737052393678)"><path d="M-0.72 -0.07 C174.75 -1.54, 349.43 0.25, 477.1 2.35 M-0.01 0.38 C186.39 -0.42, 372.23 0.47, 477.43 3.03" stroke="#9c36b5" stroke-width="4" fill="none"></path></g><g transform="translate(1141.1834948551223 59.03092892918187) rotate(0 238.352940383048 1.2096737052393678)"><path d="M447.42 12.68 C458.85 7.63, 468.47 5.85, 475.74 2.13 M449.06 13.7 C460.46 9.33, 470.51 5.12, 476.49 3.68" stroke="#9c36b5" stroke-width="4" fill="none"></path></g><g transform="translate(1141.1834948551223 59.03092892918187) rotate(0 238.352940383048 1.2096737052393678)"><path d="M447.76 -7.84 C459.09 -5.37, 468.59 0.37, 475.74 2.13 M449.39 -6.82 C460.56 -3.18, 470.48 0.6, 476.49 3.68" stroke="#9c36b5" stroke-width="4" fill="none"></path></g></g><mask></mask><g transform="translate(1641.4628001575547 45.15724915991893) rotate(0 76.171875 12)"><text x="0" y="0" font-family="Cascadia, Segoe UI Emoji" font-size="20px" fill="#f08c00" text-anchor="start" style="white-space: pre;" direction="ltr" dominant-baseline="text-before-edge">Scroll Height</text></g><g stroke-linecap="round" transform="translate(10 10) rotate(0 349.44540769880587 252.25326889814875)"><path d="M0 0 C0 0, 0 0, 0 0 M0 0 C0 0, 0 0, 0 0 M0.07 6.98 C0.75 4.88, 2.4 2.51, 4.76 1 M-0.53 6.62 C1.99 3.94, 3.6 2.07, 5.07 0.09 M-0.9 13.6 C3.68 9.07, 3.71 5.52, 9.21 -1.38 M-0.45 11.34 C3.23 8.89, 5.95 5.93, 11.4 -0.78 M0.45 20.39 C5.44 14.95, 7.94 9.59, 15.75 0.46 M-0.1 19.04 C5.24 13.61, 9.93 7.82, 15.68 0.53 M-0.47 25.43 C7.12 15.67, 14.92 6.77, 21.95 -0.28 M0.45 23.31 C8.28 14.88, 15.04 5.41, 21.71 -0.41 M-1.43 29.82 C4.84 24.32, 11.22 14.43, 26.47 0.76 M-0.33 30.08 C8.76 19.07, 19.8 8.23, 27.2 -0.12 M-1.62 34.96 C11.64 25.85, 22.4 13.46, 31.08 1.45 M0.25 36.14 C12.19 23.46, 24.41 7.97, 32.01 -1.07 M-0.64 42.89 C8.42 33.27, 14.22 22.74, 36.37 -1.52 M0.87 42.92 C9.13 33.1, 17.75 22.11, 35.95 0.8 M0.9 50.28 C12.74 35.14, 23.97 20.8, 42.32 -0.94 M-0.91 49.39 C9.09 38.68, 18.86 26.66, 41.9 -0.25 M1.27 52.79 C14.28 41.72, 24.48 27.38, 48.32 -1.34 M-0.26 54.43 C10.31 41.89, 20.39 30.33, 47.35 0.86 M1.67 62.83 C15.63 41.16, 29.85 23.74, 53.78 0.6 M0.56 61.56 C19.78 38, 39.08 16.69, 53.54 -0.26 M-1.86 65.95 C18.2 43.14, 39.66 22.66, 58.18 1.84 M0.59 67.25 C13.16 52.4, 28.76 36.24, 59.04 1.14 M0.93 74.79 C15.38 54.03, 33.58 33.11, 65.62 0.59 M1.11 73.92 C21.9 49.7, 42.29 24.55, 62.83 0.62 M-0.19 81.01 C16.36 62.97, 30.53 44.32, 68.88 2.03 M-0.56 79.77 C23.2 50.86, 48.87 23.67, 67.91 -0.78 M1.98 85.76 C24.09 59.31, 46.95 32.41, 74 -1.99 M0.44 84.25 C28.44 51.7, 57.19 18.84, 74.39 -0.89 M-1.84 91.33 C18.97 71.56, 34.01 51.9, 80.35 0.7 M-0.93 91.67 C30.74 57.07, 62.15 21.44, 79.07 0.23 M0.47 99.61 C21.31 74.38, 41.37 52.23, 85.15 -1.69 M-0.17 98.61 C22.78 71.92, 44.63 45.65, 84.57 -0.03 M-0.21 103.99 C26.11 74.85, 50.92 45.65, 91.58 0.78 M0.64 103.87 C25.69 74.94, 50.26 45.53, 90.88 -0.2 M1.08 111.38 C38.56 67.12, 76.39 22.73, 97.31 -0.58 M-0.26 109.32 C24.59 83.27, 50.65 55.06, 96.49 -1.05 M-0.69 114.54 C26.27 85.74, 55.01 53.87, 102.57 0.68 M0.08 116.32 C39.76 72.92, 76.93 28.53, 99.93 -0.94 M-0.48 121.87 C23.28 96.38, 43.61 73.28, 106.73 -2.27 M0.94 122.44 C27.34 89.62, 56.97 55.97, 106.95 -0.17 M0.71 129.76 C25.68 96.68, 51.71 67.58, 112.35 0.27 M0.36 127.75 C36.46 88.19, 73.19 47.71, 112.03 -0.32 M-0.79 132.57 C29.87 94.9, 65.44 58.44, 117.08 -1.14 M0.04 133.83 C45.37 83.09, 90.9 30.65, 116.88 0.16 M-2.02 138.6 C24.87 112.75, 53.35 82.84, 121 -1.09 M-0.83 139.63 C43.08 92.09, 85.74 41.98, 121.25 0.83 M0.58 144.46 C39.09 100.8, 73.6 60.96, 127.99 0.63 M-0.09 146.86 C44.57 97.02, 87.57 44.38, 126.87 1.23 M1.06 150.96 C29.34 121.39, 59.75 86.88, 131.71 1.26 M-0.03 151.77 C25.26 121.44, 53 90.55, 132.83 0.18 M-1.38 160.5 C42.42 109.99, 83.24 63.02, 137.22 -0.33 M-0.02 158.22 C33.22 121.83, 65.51 84.95, 138.22 -0.3 M0.93 163.85 C57.98 98.62, 111.14 34.27, 144.17 0.03 M-0.34 164.03 C34.91 124.2, 69.52 84.94, 142.5 -0.88 M-1.14 169.92 C32.14 133.34, 67.61 94.75, 148.92 1.75 M-0.03 171.48 C54.93 108.06, 111.47 43.43, 148.85 1.05 M-1.35 177.25 C48.98 118.79, 100.37 62.64, 154.22 0.47 M0.57 176.48 C47.2 124.72, 91.66 71.82, 154.49 -0.9 M0.11 183.58 C60.38 113.36, 117.61 48.56, 159.81 -1.12 M0.62 183.68 C41.59 137.57, 81.75 90.97, 159.24 0.67 M0.96 188.88 C50.05 133.2, 98.95 78.43, 165.48 0.15 M-0.27 189.06 C37.52 144.19, 77.14 100.8, 164.51 -0.61 M-0.51 193.73 C50.74 136.7, 100.8 79.46, 168.71 -1.08 M0.1 194.45 C37.98 152.22, 74.89 108.84, 169.6 -0.59 M1.44 202.87 C44.71 151.91, 86.99 99.79, 174.08 1.26 M-0.61 201.16 C68.01 123.75, 136.71 44.73, 174.48 -0.22 M0 207.15 C66.03 133.85, 130.59 61.13, 180.88 -0.21 M0.89 206.99 C65.37 131.82, 129.08 57.64, 180.7 0.39 M-1.2 213.04 C40.23 170.42, 80.56 123.92, 186.58 -0.78 M0.26 213.57 C61.6 141.75, 124.2 71.08, 186.3 -0.31 M-1.66 221.13 C71.65 136.18, 143.44 54.29, 190.38 1.5 M0.16 219.99 C38.37 174.53, 77.46 129.7, 189.98 0.31 M-0.1 224.01 C51.94 166.72, 103.2 107.98, 196.17 -0.04 M0.39 224.85 C58.62 157.13, 118.74 87.8, 196.62 -0.99 M-1.38 232.17 C66.25 155.19, 134.61 79.43, 200.77 1.52 M-0.33 231.93 C53.42 173.47, 105.22 113.37, 201.56 -0.07 M-0.64 237.3 C80.81 146.72, 159.7 56.11, 206.22 -0.3 M0.04 237.31 C76.25 150.16, 151.07 63.26, 206.95 0.14 M0.55 244.55 C63.99 170.44, 127.38 95.61, 210.98 -0.62 M-0.66 243.25 C55.45 179.58, 110.82 116.63, 211.84 -0.05 M-1.29 251.14 C84.38 150.89, 171.9 52.1, 216.24 -1.06 M-0.04 249.63 C59.09 181.2, 118.7 112.73, 218.09 0.04 M1.06 256.92 C74.88 171.7, 145.31 88.27, 222.78 0.38 M0.48 255.36 C67.63 177.35, 134.29 100.33, 222.25 0.28 M1.15 262.22 C54.44 202.77, 106.55 141.02, 229.1 0.39 M0.52 261.79 C87.93 162.81, 176.28 61.05, 228.24 -0.29 M0.8 267.75 C69.96 185.53, 141.31 103.69, 233.83 0.31 M0.47 267.86 C79.02 176.84, 158.19 85.91, 233.81 -0.42 M-1.14 273.79 C64.46 200.7, 126.73 129.19, 238.42 0.45 M0.08 274.57 C87.69 175.07, 173.38 75.36, 238.52 -0.17 M-0.92 279.93 C82.14 186.66, 165.7 90.14, 244.63 0.82 M-0.31 280.25 C63.28 206.17, 128.06 131.08, 244.17 -0.2 M0.24 285.87 C91.75 182.75, 184.45 77.23, 248.53 0.86 M0.7 286.2 C66.19 209.57, 132.88 133.28, 248.27 -0.24 M0.15 293.4 C95.29 180.95, 190.4 71.18, 254.46 0.07 M0.45 293.21 C58.91 224.39, 117.73 156.08, 254.7 0.25 M-0.27 297.58 C67.34 221.75, 132.01 147.09, 258.45 1.33 M0.45 298.64 C67.92 218.64, 135.3 140.6, 259.33 0.11 M0.74 304.2 C94.56 196.73, 189.4 88.09, 264.97 -1 M0.26 305.12 C88.5 200.52, 179.39 96.33, 264.74 -0.23 M0.81 311.41 C95.25 201.01, 191.56 89.17, 270.7 0.71 M-0.28 311.55 C86.02 211.84, 171.11 114.41, 270.63 0.5 M-0.74 316.7 C76.96 226.17, 155.56 138.61, 276.49 -0.26 M-0.16 316.96 C96.78 207.94, 192.29 98.27, 275.74 -0.43 M0.9 322.26 C94.25 216.6, 187.42 106.9, 280.52 0.91 M-0.52 323.58 C79.51 230.04, 160.35 136.96, 280.85 -0.18 M0.01 329.16 C93.79 219.4, 188.15 110.44, 287.26 0.21 M0.45 328.79 C101.34 213.65, 201.4 99, 286.2 0.14 M0.15 336.15 C105.68 215.84, 211.13 95.54, 290.53 -0.73 M0.14 335.12 C74.13 249.94, 149.15 164.36, 291.05 -0.07 M0.54 342.55 C108.37 218.4, 217.01 92.82, 296.81 -0.14 M-0.34 342.14 C91.92 236.26, 184.57 129.23, 296.71 -0.04 M0.21 347.22 C72.09 266.48, 142.71 183.45, 302.39 -0.04 M0.58 347.75 C116.12 214.08, 231.56 81.01, 301.73 -0.26 M0.27 354.39 C60.63 280.66, 122.74 209.82, 308.46 0.32 M-0.28 353.63 C104.19 233.05, 208.83 112.42, 308.05 0.07 M0.62 359.85 C92.54 255.68, 184.9 150.45, 312.56 0.75 M0.19 359.66 C76.01 273.58, 150.6 186.3, 312.48 -0.05 M0.9 366.16 C110.34 238.57, 220.87 112.51, 318.83 0.5 M0 365.75 C125.93 223.71, 250.73 80.34, 318.19 -0.38 M-0.47 372.61 C88.57 268.66, 178.91 167.01, 322.82 0.48 M-0.56 371.84 C98.36 258.53, 197.29 144.92, 323.5 0.47 M0.69 377.44 C89.66 275.7, 178.54 173.67, 328.51 -0.27 M0.18 377.66 C125.7 233.43, 250.9 89.75, 329.02 -0.06 M0.47 384.06 C86.75 283.07, 174.73 182.35, 333.42 -0.4 M-0.01 384.13 C84.54 288.13, 168.45 191.96, 333.48 0.28 M0.19 389.15 C110.91 264.66, 220.21 139.93, 340.29 -0.01 M0.1 390.03 C90.52 286.35, 181.55 182.14, 339.68 -0.16 M-0.73 395.87 C120.05 260.06, 238.14 125.75, 344.23 0.55 M-0.11 396.18 C86.02 295.84, 172.5 196.5, 344.83 0.23 M0.32 401.96 C77.48 312.46, 154.78 224.75, 349.88 0.83 M-0.58 402.89 C127.41 254.84, 256.42 106.54, 349.81 0.11 M0.5 407.55 C120.08 268.99, 240.48 130.68, 355.55 -0.8 M0.57 408.1 C101.23 291.48, 203.41 174.01, 355.22 0.11 M-0.34 414.06 C130.13 265.79, 258.96 117.74, 360.59 0.62 M-0.14 414.63 C90.02 311.55, 179.73 208.55, 360.1 0.13 M-0.76 420.36 C107.71 296.82, 216.23 171.19, 365.7 -0.01 M-0.52 420.8 C84.66 322.72, 170.66 223.89, 366.05 -0.06 M0.8 426.5 C113.93 296.98, 228.34 164.81, 370.6 0.14 M0.08 426.88 C85 329.33, 169.27 232.7, 370.37 0.3 M0.58 433.48 C142.53 269.01, 285.85 103.79, 376.6 -0.83 M-0.48 433.3 C142.53 270.73, 283.54 108.25, 376.38 -0.46 M-0.57 439.39 C116.14 303.48, 232.41 169.39, 381.13 0.43 M0.26 438.74 C104.8 321.64, 206.95 203.75, 380.98 0.3 M0.46 444.56 C145.41 278.02, 292.62 109.66, 386.61 -0.05 M-0.05 445.31 C112.21 315.35, 225.55 185.21, 387.38 -0.27 M-0.22 450.95 C143.11 287, 287.35 121.74, 391.83 -0.48 M-0.36 451.86 C115.61 316.88, 233.34 181.92, 391.8 0.21 M0.27 457.06 C79.55 364.54, 161.74 269.35, 397.66 0.55 M0.13 456.98 C146.72 286.64, 294.57 116.72, 397.9 -0.45 M0.47 463.33 C152.95 290.05, 304.9 115.22, 403.16 -0.4 M-0.48 463.85 C114.34 329.59, 230.31 196.42, 402.6 0.11 M0.61 469.04 C164.3 282.44, 326.53 94.89, 408.13 -0.23 M0.16 469.28 C119.1 332.37, 239.03 194.79, 408.1 -0.17 M-0.64 475.13 C82.79 381.42, 165.11 285.65, 413.99 -0.13 M-0.27 475.57 C149.26 304.68, 297.37 133.65, 413.41 0.51 M-0.15 482.7 C92.75 375.89, 183.66 271.24, 418.39 -0.6 M-0.24 481.92 C146.8 312.13, 293.96 143.46, 419.04 -0.37 M0.16 487.2 C157.13 305.96, 314.4 125.49, 424.01 0.51 M0.02 487.73 C121.29 346.74, 243.41 206.02, 424.18 0.29 M-0.86 494.16 C149.54 322.38, 300.21 150.6, 430.03 0.22 M-0.3 493.97 C137.83 334.06, 277.87 172.93, 429.84 -0.21 M-0.17 499.37 C171.96 302.93, 343.62 105.92, 434.52 0.3 M-0.12 499.68 C89.96 397.06, 177.77 296.04, 434.35 0.36 M-0.08 506.04 C175.4 306.55, 348.06 107.32, 440.26 -0.42 M0.55 505.6 C95.38 396.3, 188.88 287.66, 440.54 -0.64 M6.42 504.44 C116.12 376.26, 227.75 248.01, 444.41 0.59 M6.36 505.34 C129.32 363.46, 251.92 222.74, 444.85 0.02 M10.44 504.98 C183.61 308.09, 353.19 113.16, 450.68 0.24 M11.15 505.65 C145.43 351, 278.97 196.79, 450.87 0.02 M17.19 504.14 C149.54 352.9, 282.71 198.8, 455.81 -0.28 M16.6 504.77 C127.92 380.21, 237.1 253.94, 456.1 -0.19 M21.52 504.49 C146.67 362.64, 271.22 219.43, 461.74 -0.07 M21.6 505.21 C151.19 357.05, 279.42 209.53, 461.46 -0.76 M28.11 505.33 C192.61 317.27, 354.99 130.33, 466.86 0.22 M27.77 504.79 C157.43 356.79, 286.16 208.47, 466.03 0.24 M33.06 504.56 C145.26 375.79, 256.97 247.01, 471.2 0.95 M32.57 504.89 C194.69 318.24, 357.57 131, 471.17 0.23 M37.77 505.38 C151.12 376.42, 264.27 245.19, 477.31 0.02 M38.1 504.75 C189.78 330.79, 342.5 155.52, 476.85 -0.16 M43.35 505.36 C136.1 400.16, 227.85 293.81, 482.44 -0.12 M43.37 504.9 C188.46 334.92, 336.24 165.67, 481.7 0.59 M48.39 504.67 C152.78 381.32, 259.48 259.26, 487.7 -0.38 M49.12 504.62 C221.2 306.31, 393.38 107.8, 487.47 -0.46 M53.09 504.84 C170.74 369.48, 288.51 234.99, 493.27 0.98 M54.05 505.44 C181.68 359.84, 307.73 214.59, 492.52 0.34 M59.52 504.9 C218.14 320.47, 381.25 134.04, 498.62 -0.28 M59.01 505.31 C218.98 319.55, 380.38 134.06, 498.67 -0.11 M64.61 504.35 C187.03 366.9, 308.29 226.97, 502.56 -0.45 M64.12 505.53 C206.68 341.49, 349.34 178.17, 503.02 0.2 M69.9 505.29 C227.69 321.78, 385.63 139.78, 508.24 0.4 M69.6 505.28 C181.5 374.27, 294.95 243.71, 508.77 -0.16 M74.64 504.62 C208.57 350.42, 344.73 194.99, 513.6 -0.54 M75.42 504.99 C185 381.45, 292.81 257.18, 513.9 0.24 M80.7 504.73 C216.46 345.49, 353.88 186.87, 519.56 0.32 M79.65 505.46 C171.86 399.88, 261.72 296.44, 519.54 -0.47 M86.33 504.97 C243.27 325.05, 400.9 143.99, 525.3 -0.43 M86.04 504.86 C199.14 374.2, 312.06 243.91, 524.32 0.4 M91 505.93 C263.13 303.84, 437.8 102.77, 530 -0.86 M90.27 505.84 C267.31 303.14, 442.84 101.73, 530.28 -0.06 M95.63 505.7 C201.15 381.58, 308.87 258.99, 534.56 0.94 M96.4 505.36 C212.72 374.64, 327.37 242.39, 534.78 -0.03 M101.05 505.79 C256.45 326.93, 411.37 148.9, 540.16 -0.08 M101.47 505.8 C269.8 313.41, 437.99 120.12, 540.54 0.02 M106.53 505.72 C240.73 352.95, 375.35 198.5, 545.13 -0.41 M107.19 504.75 C266.57 321.78, 427.3 137.18, 545.85 0.48 M111.52 505.79 C286.36 305.09, 459.05 104.7, 551.5 0.27 M111.74 505.34 C263.71 328.55, 417.4 151.81, 551.41 -0.44 M117.39 504.89 C252.7 347.69, 389 191.33, 557.13 0.16 M117.42 505.26 C283.46 313.97, 447.55 125.06, 556.19 0.45 M122.71 504.82 C260.2 345.56, 399.62 185.8, 562.24 -0.38 M122.48 505.46 C230.67 380.52, 338.82 256.51, 561.84 -0.48 M128.22 504.9 C280.43 331.23, 431.05 158.67, 566.32 0.66 M127.96 504.76 C259.32 353.95, 390.46 202.84, 566.96 -0.18 M133.72 504.73 C299.38 317.38, 464.02 129.07, 573.06 -0.02 M132.76 505.36 C249.16 368.51, 366.8 232.95, 573.09 -0.69 M138.23 505.2 C279.02 342.58, 419.84 180.07, 577.67 -0.31 M138.81 505.09 C248.42 378.36, 358.26 252.11, 577.41 0.33 M143.27 504.78 C237.64 401.73, 329.18 296.07, 582.36 1.1 M143.77 505.27 C304.44 319.37, 465.01 134.84, 582.86 0.25 M149.84 505.42 C270.09 367.15, 389.13 229.12, 588.55 0.44 M149.43 504.54 C296.02 333.51, 443.49 163.2, 588.5 0.32 M153.69 505.61 C299.05 339.92, 443.02 173.26, 592.95 -0.16 M154.38 505.2 C303.54 334.52, 452.2 163.66, 593.1 0.64 M159.88 504.62 C274.01 372.56, 389.39 240.59, 599.15 0.28 M159.99 504.58 C325.35 314.51, 490.66 125.69, 599.26 -0.06 M165.3 505.24 C261.14 397.81, 355.18 288.07, 604.06 0.33 M164.75 505.38 C312.11 334.03, 461.3 163.23, 604.1 0.65 M170 505.19 C290.63 368.67, 408.53 232.17, 610.08 -0.42 M170.97 504.67 C336.77 313.04, 503.65 121.35, 609.63 -0.05 M175.67 504.68 C277.39 389.72, 377.64 275.48, 614.8 0.53 M175.94 505.03 C337.31 318.5, 499.58 131.7, 614.28 0.47 M180.4 504.91 C314.09 352.22, 445.22 199.96, 619.95 -0.72 M180.45 505.87 C299.96 369.12, 418.48 233.62, 620.04 -0.29 M186.76 505.53 C313.96 357.72, 442.67 209.2, 625.89 0.19 M186.31 505.21 C357.83 308.5, 527.95 113, 625.57 -0.06 M191.66 505.87 C318.57 361.62, 443.6 216.67, 630.99 0.13 M191.2 505.76 C349.38 325.61, 507.1 144.75, 631 0 M196.15 504.39 C290.83 394.3, 385.17 285.68, 635.67 0.03 M196.71 505.15 C373.35 304.37, 547.19 103.83, 635.79 0.46 M201.61 505.39 C368.35 317.31, 533.05 127.04, 641.83 0.26 M202.31 505.78 C317.83 370.68, 436.14 234.39, 641.14 0.19 M207.43 504.82 C369.89 316.41, 533.27 128.68, 645.68 -0.63 M207.67 505.1 C362.36 326.42, 518.18 146.7, 646.26 -0.12 M211.95 505.04 C317.3 383.12, 424.05 260.8, 651.54 -0.84 M212.21 505.45 C309.37 393.51, 407.09 280.75, 652.36 -0.54 M218.2 505.4 C312.41 398.55, 405.78 290.94, 656.69 0.13 M218.23 505.13 C340.53 365.8, 461.84 226.3, 657.37 0.02 M223.59 505.79 C396.33 307.91, 568.91 108.71, 661.97 0.15 M223.24 505.07 C371.11 332.81, 521.41 160.29, 663.07 -0.4 M228.88 505.27 C387.38 324.89, 545.49 141.21, 667.85 -0.41 M228.73 504.69 C367.46 345.88, 507.34 185.26, 667.43 -0.07 M234.25 505.57 C342.35 381.46, 449.13 256.84, 673.8 -0.09 M234.03 505.36 C385.56 327.06, 540.18 149.76, 673.37 -0.19 M238.69 504.96 C376.24 346.78, 512.75 187.79, 677.57 0.83 M239.57 504.66 C368.4 357.71, 496.77 209.61, 678.64 0.25 M244.06 504.93 C351.62 381.27, 461.37 257.06, 684.13 -1.08 M244.69 505.45 C364.53 366.6, 485.02 227.46, 683.84 -0.52 M249.67 505.62 C398.21 334.23, 547.98 162.77, 689.02 0.74 M250.07 505.31 C410.04 320.9, 571.36 135.4, 688.67 -0.35 M254.77 504.57 C414.26 321.41, 576.75 134.39, 695.25 -0.95 M254.83 505.66 C405.29 331.97, 557.33 157.36, 694.37 -0.57 M261.08 504.94 C428.75 309.62, 597.71 115.88, 699.83 0.35 M260.46 505.13 C417.47 324.33, 573.98 144.51, 699.92 -0.03 M265.73 504.61 C437.06 305.21, 610.62 106.7, 699.98 6.32 M265.56 505.52 C390.75 362.78, 514.8 219.51, 699.43 6.66 M271.78 504.43 C427.63 324.84, 583.03 146.45, 699.66 12.16 M271.42 505.2 C369.24 392.06, 466.01 280.18, 699.11 13.13 M276.33 505.33 C386.31 380.37, 496.9 253.89, 698.76 18.28 M276.69 504.99 C373.71 390.69, 472.67 276.94, 699.21 18.08 M282.65 505.37 C396.68 373.52, 510.92 242.09, 698.75 24.8 M282.16 504.82 C447.79 312.8, 614.15 121.19, 699.01 24.6 M286.73 504.83 C407.01 367.7, 525.89 230.38, 699.71 30.87 M287.1 504.81 C376.53 401.2, 465.6 298.48, 699.27 30.24 M291.93 505.61 C402.49 379.32, 513.1 252.1, 699.69 36.64 M291.71 505.84 C389.53 392.53, 488.45 279.26, 699.42 37.02 M297.15 504.57 C435.28 345.02, 575.54 183.96, 699.74 42.65 M297.58 505.33 C404.27 380.03, 512.66 255.83, 699.21 43.12 M301.82 505.28 C459 325.78, 617.41 145.44, 700.14 49.51 M302.77 505.27 C451.95 330.75, 603.26 157.9, 699.12 49.07 M308.58 505.41 C435.26 359.04, 562.26 212.14, 698.92 55.31 M308.02 505.31 C437.81 358.18, 565.46 211.21, 699.5 55.45 M313.78 505.8 C414.28 390.53, 514.47 273.49, 698.73 61.34 M313.37 505.77 C462.2 334.99, 610.54 163.84, 698.88 61.41 M318.85 505.19 C407.96 402.15, 496.45 301.24, 698.98 67.8 M318.59 504.72 C442.31 361.98, 566.96 218.62, 699.52 67.23 M323.95 506.01 C456.86 354.98, 587.97 204.54, 698.43 73.6 M323.86 505.06 C431.03 383.19, 537.5 260.64, 698.97 74.02 M329.79 504.34 C440.01 376.63, 551.38 249.89, 700.3 78.89 M329.35 505.14 C445.83 372.11, 560.41 239.82, 699.82 79.52 M334.47 505.33 C451.61 369.45, 568.38 234.67, 698.7 85.43 M334.32 505.07 C427.99 398.94, 519.71 293.57, 699.57 85.56 M340.05 505.08 C442.25 386.67, 544.39 267.6, 698.22 92.71 M339.88 505.34 C451.85 376.51, 565 247.44, 698.78 92.32 M344.68 506.17 C451.01 381.53, 558.97 259.03, 698.84 97.77 M344.92 505.13 C458.66 376.35, 571.63 246.12, 699.01 97.95 M350.69 504.23 C480.41 352.78, 612.19 203.08, 699.29 103.68 M350.43 504.91 C448.62 392.94, 546.28 280.48, 698.83 104.38 M355.15 505.13 C427.9 423.7, 497.94 342.81, 699.77 110.18 M355.49 505.58 C446.56 401.6, 536.84 297.3, 699.12 109.49 M361.18 505.17 C451.05 400.31, 541.51 296.94, 698.86 116.32 M361.55 504.64 C481.84 367.32, 601.42 230.23, 698.95 116.55 M366.86 505 C434.01 429.03, 501.81 350.91, 699.38 122.33 M365.99 504.96 C473.62 384.68, 579.46 262.22, 699.35 122.46 M371.8 504.28 C467.2 394.76, 561.48 285.89, 698.98 128.53 M372.08 504.53 C496.07 363.06, 619.92 221.13, 699.24 128.28 M377.21 505.99 C454.71 414.79, 533.68 323.5, 699.11 135.06 M376.86 505.23 C461.31 406.38, 547.13 307.5, 699.03 134.9 M382.86 504.52 C474.5 398.08, 567.03 291.34, 698.86 139.58 M382.77 504.99 C446.11 431.13, 509.55 357.72, 699.1 140.47 M387.13 504.73 C499.56 377.13, 611.32 247.03, 699.28 145.9 M387.87 504.91 C493.59 381.83, 600.37 258.91, 699.44 147.11 M393.92 505.15 C500.34 381.15, 607.28 256.8, 698.36 153.53 M393.45 504.81 C504.32 375.42, 616.99 245.26, 698.6 153.38 M399.12 505.19 C501.84 383.66, 607.04 262.55, 699.23 158.6 M398.37 505.26 C498.27 388.86, 598.11 274.58, 699.54 158.97 M404.36 505.43 C481.91 412.33, 561.97 322.29, 699.91 165.04 M404.26 504.84 C471.45 424.87, 539.87 346.75, 699.12 165.58 M408.89 506.13 C489.67 412.25, 569.98 319.01, 699.13 171.13 M408.68 505.64 C490.27 414.09, 569.65 322.15, 699.88 170.36 M413.86 506.46 C486.02 419.15, 561.24 333.69, 699.62 176.94 M413.57 505.9 C481.56 426.48, 550.18 347.99, 699.65 177.21 M418.97 504.65 C529.95 377.38, 640.25 248.17, 698.6 184.03 M419.83 505.48 C517.99 392.21, 617.75 277.96, 698.79 183.46 M424.15 505.3 C499.6 419.64, 572.73 333.99, 698.39 189.4 M424.06 504.96 C492.99 425.47, 561 347.47, 699.91 189.39 M430.87 505.73 C489.58 436.48, 550.6 367.76, 698.16 194.71 M429.91 504.93 C488.21 438.52, 547.69 370.25, 699.48 195.22 M436.23 504.59 C503.47 424.29, 575.11 343, 699.07 201.15 M435.45 505.45 C492.29 442.5, 547.37 378.38, 699.11 201.52 M441.21 504.73 C507.06 431.52, 569.31 357.94, 698.55 207.51 M440.78 504.52 C507.95 427.34, 575.12 350.93, 699.42 207.42 M445.02 504.55 C532.16 406.95, 619.73 307.13, 697.94 213.49 M446.24 505.28 C516.42 423.02, 587.84 341.04, 699.36 214.54 M451.38 505.39 C510.56 436.78, 571.14 368.85, 700.25 218.57 M451.19 504.55 C529.11 415.17, 608.66 324.52, 699.81 220.07 M455.57 504.48 C507.77 443.7, 561.14 384.54, 699.44 226.48 M456.95 505.67 C534.24 416.74, 612.19 328.1, 698.61 226.21 M462.46 505.56 C539.35 413.22, 619.21 322.47, 698.78 231.15 M461.7 504.46 C555.16 398.78, 647.73 292.34, 700.03 231.31 M466.19 506.43 C540.76 419.79, 614.1 336.73, 699.57 237.22 M467.39 504.85 C554.74 403.92, 642.83 303.29, 698.82 238.72 M473.75 504.92 C550.78 414.69, 627.76 323.97, 700.04 243.59 M473.11 504.58 C547.23 420.16, 620.86 336, 698.49 244.98 M478.92 506.38 C547.02 426.38, 615.06 345.58, 699.09 250.45 M477.16 504.77 C528.02 446.35, 577.61 389.1, 699.86 250.05 M483.74 504.16 C536.4 442.1, 593.99 378.42, 699.42 257.34 M483.11 504.28 C553.12 424.11, 621.74 344.99, 698.7 257.01 M487.78 505.54 C570.51 407.41, 655.93 313.42, 699.64 262.96 M487.7 505.65 C534.32 451.36, 582.23 396.57, 698.96 261.71 M494.3 503.69 C563.8 426.57, 633.11 346.62, 699.27 269.8 M493.42 505.31 C538.39 453.21, 584.01 399.11, 699.49 268.07 M498.87 504.24 C570.24 423.93, 642.8 340.4, 698.84 275.75 M499.06 504.84 C543.89 451.76, 590.55 398.94, 698.92 275.13 M503.9 505.07 C544.71 459.61, 587.32 411.2, 700.22 280.39 M504.03 504.18 C550.35 452.19, 597.15 397.9, 699.34 280.25 M510.3 506.23 C573.12 429, 641.38 355.3, 699.82 287.17 M508.82 504.53 C569.29 437.57, 627.34 368.14, 699.23 287.71 M514.64 503.56 C584.35 425.14, 653.82 345.48, 698.38 293.41 M515.09 504.16 C554.88 455.94, 596.88 408.73, 699.35 292.94 M521.43 505.28 C574.74 441.34, 630.08 376.65, 700.12 298.98 M520.21 505.75 C561.55 457.01, 604.34 407.75, 699.64 299.35 M524.34 505.14 C583.4 439.15, 639.38 373.3, 698.19 305.42 M525.5 505.42 C590.95 429.87, 656.53 354.46, 699.13 305.4 M531.56 504.26 C586.22 439.57, 639.88 378.35, 698.52 311.91 M531.1 505.61 C596.16 431.3, 658.96 358.45, 699.2 311.89 M536.69 504.02 C571.01 462.35, 607.95 421.19, 698.62 318.67 M536.25 505.35 C594.46 439.24, 653.22 371.92, 698.44 317.69 M541.61 505.24 C588.87 452.04, 637.41 395.74, 699.48 324.67 M542.15 505.83 C605.15 434.22, 668.94 362.39, 699.52 322.89 M546.12 504.09 C602.5 439.26, 659.04 374.19, 699.73 328.46 M545.69 505.6 C603.28 438.47, 660.44 371.57, 698.87 329.86 M552.62 504.03 C590.82 459.15, 627.39 417.39, 697.99 336.09 M551.31 505.81 C605.51 442.34, 660.59 378.56, 698.54 336.77 M558.47 504.95 C612.24 442.93, 666.13 378.09, 700.62 341.22 M556.38 505.04 C597.86 458.05, 639.65 409.96, 699.22 341.1 M564.05 505.21 C595.07 466.6, 631.31 428.44, 700.23 347.34 M563.11 504.9 C599.1 462.76, 636.32 421.05, 698.84 347.77 M568.66 503.88 C598.5 472.81, 628.7 436.93, 700.32 353.85 M566.94 504.61 C609.01 459, 650.24 412.01, 698.82 353.2 M571.49 503.25 C603.47 469.76, 635.96 431.69, 701.11 361.87 M574.29 505.11 C608.91 465.64, 640.51 426.58, 699.63 360.6 M579.39 504.65 C622.34 456.98, 666.56 406.71, 698.92 365.85 M577.83 504.93 C613.54 462.58, 648.12 421.53, 699.76 367.16 M583.84 506.23 C611.23 473.34, 637.66 440.4, 697.8 372.16 M584.38 504.92 C612.12 474.27, 638.44 441.11, 699.92 372.48 M588.65 505.53 C632.8 453.83, 672.45 408.47, 698.65 378.77 M588.99 505.4 C617.08 471.65, 647.79 436.56, 699.29 378.71 M594.63 502.99 C632.22 461.3, 672.83 417.25, 701.17 385.77 M593.95 505.64 C623.32 472.32, 651.93 440.5, 698.88 383.9 M599.67 503.63 C622.45 482.7, 644.57 455.65, 697.96 391.02 M600.36 504.63 C628.65 472.52, 657.69 437.6, 700.12 389.68 M603.28 504.77 C636.58 465.73, 668.12 428.85, 700.37 396.59 M605.27 504.61 C636.53 468.95, 667.83 434.29, 698.31 396.64 M610.63 505.7 C639.15 473.9, 663.2 441.68, 699.91 400.71 M609.21 505.85 C643.87 466.71, 678.41 427.84, 698.45 402.25 M617.19 503.33 C638.05 479.97, 659.44 455.56, 699.53 407.7 M615.34 504.19 C633.77 484.82, 650.45 466.31, 698.19 409.76 M620.72 505.96 C652.14 467.89, 684.19 435.49, 697.58 416.42 M621.02 505.79 C637.24 487.15, 653.74 467.77, 700.19 414.6 M625.84 504.87 C653.34 473.67, 681.35 440.44, 699.83 421.93 M626.91 504.73 C654.69 473.09, 681.96 441.68, 699.79 421.06 M632.15 504.09 C644.87 490.44, 657.5 474.02, 699.43 427.95 M630.53 505.71 C658.85 475.8, 684.16 444.01, 699.36 426.68 M638.72 504.05 C657.87 477.84, 680.04 455.17, 700.17 432.79 M637.42 505.64 C658.32 480.38, 678.15 457.18, 699.25 433.14 M640.19 503.26 C659.52 485.41, 677.63 465.13, 697.91 441.31 M642.69 504.38 C653.2 491.71, 664.01 478.31, 699.64 440.2 M646.68 506.78 C666.57 480.44, 688.99 457.22, 698.45 443.31 M647.45 505.06 C659.52 489.15, 673.26 473.94, 699.96 445.08 M651.12 504.1 C667.87 489.27, 682.33 470.62, 699.56 453.25 M653.7 505.07 C664.46 490.82, 677.05 477.54, 699.51 452.14 M658.6 505.15 C668.34 491.81, 680 478.74, 700.96 456.69 M658.22 505.91 C670.94 491.26, 683.51 475.65, 698.88 458.26 M664.27 506.69 C678.27 487.47, 691.9 472.83, 697.58 462.21 M663.99 504.6 C672.74 495.17, 681.19 483.55, 699.83 462.75 M667.4 504.01 C678.37 493.75, 688.99 480.84, 698.98 471.37 M668.77 505.37 C676.03 496.78, 682.15 489.32, 698.17 470.29 M673.98 504.6 C684.59 495.96, 694.41 481.48, 701.21 475.12 M673.23 504.27 C678.4 498.47, 683.7 493.28, 700.2 475.29 M678.71 503.89 C684.45 497.42, 692.57 490.57, 698.88 483.52 M679.5 504.88 C685.04 498.3, 690.39 491.56, 700.27 482.57 M683.63 506.87 C689.43 499.81, 693.63 494.65, 697.07 490.13 M685.31 504.92 C689.54 498.02, 696.52 492.01, 699.28 487.78 M688.52 504.21 C690.74 503.87, 693.3 501.04, 698.87 494.01 M690.31 505.79 C692.56 503.2, 693.75 499.2, 699.48 494.21 M695.36 504.69 C696.88 502.78, 698.56 501.15, 698.75 500.19 M695.28 505.26 C695.97 504.16, 696.94 502.93, 698.96 500.62" stroke="#ffffff" stroke-width="0.5" fill="none"></path><path d="M-0.2 -0.18 C265.47 1.29, 531.94 1.34, 699.13 0.38 M0.21 0.31 C163.89 2.53, 328.22 2.63, 698.62 -0.21 M699.08 0.21 C697.39 152.37, 698.35 303.06, 698.89 504.08 M698.64 -0.03 C698.81 182.36, 698.81 365.09, 698.54 504.31 M699.07 505.15 C449.29 505.55, 199.31 504.91, 0.47 504.63 M698.83 504.65 C492.16 502.43, 285.47 502.11, 0.19 504.75 M-0.44 504.34 C0.25 357.57, 0.46 209.17, -0.28 0.3 M-0.09 504.34 C1.15 318.93, 1.12 133.63, -0.21 -0.22" stroke="#1e1e1e" stroke-width="1" fill="none"></path></g><g stroke-linecap="round" transform="translate(167.43428318262158 13.020934212314842) rotate(0 192.16643170845418 249.25430913086115)"><path d="M-0.24 1.81 L382.46 -1.37 L383.7 498.01 L-0.09 498.23" stroke="none" stroke-width="0" fill="#ffffff"></path><path d="M-0.9 -0.05 C96.79 0.55, 194.58 1.08, 383.56 0.48 M-0.46 -0.22 C78.24 -1.82, 156.58 -2.07, 384.34 -0.37 M384.08 0.74 C385.52 196.67, 384.8 393.33, 384.83 498.35 M384.66 -0.28 C383.39 113.9, 382.71 227.98, 384.56 498.29 M384.28 499.69 C264.94 500.56, 147.59 500.51, -0.05 499.6 M384.12 498.93 C301.2 499.26, 219.12 499.66, -0.05 498.4 M-0.13 498.91 C1.17 345.12, 0.81 193.37, 0.55 -0.57 M-0.27 498.47 C0.15 368.29, 0.24 237.43, 0.33 -0.26" stroke="#2f9e44" stroke-width="4" fill="none"></path></g><g stroke-linecap="round"><g transform="translate(547.2416205535992 329.76033189491204) rotate(0 -188.89309139278703 1.0005979978880077)"><path d="M-0.33 0.03 C-104.05 0.93, -209.61 1.29, -377.52 2.25 M-0.26 -0.07 C-142.28 -0.57, -283.71 -0.02, -375.79 1.75" stroke="#9c36b5" stroke-width="4" fill="none"></path></g></g><mask></mask><g stroke-linecap="round"><g transform="translate(358.5005742415324 332.81717425279226) rotate(0 -0.2898409852277837 143.4761839795434)"><path d="M1.16 -1.16 C-2.82 97.22, -2.61 194.72, -1.34 287.66 M0.2 -0.24 C2.62 69.15, 1.6 136.97, -0.94 288.12" stroke="#9c36b5" stroke-width="4" fill="none"></path></g><g transform="translate(358.5005742415324 332.81717425279226) rotate(0 -0.2898409852277837 143.4761839795434)"><path d="M-9.21 258.22 C-8.43 268.49, -4.56 277.63, -2 288.13 M-10.49 259.45 C-7.23 267.38, -6.07 273.24, -1.46 288.74" stroke="#9c36b5" stroke-width="4" fill="none"></path></g><g transform="translate(358.5005742415324 332.81717425279226) rotate(0 -0.2898409852277837 143.4761839795434)"><path d="M11.31 258.55 C5.11 268.81, 1.99 277.84, -2 288.13 M10.03 259.77 C8.4 267.67, 4.67 273.46, -1.46 288.74" stroke="#9c36b5" stroke-width="4" fill="none"></path></g></g><mask></mask><g transform="translate(290.43538630773946 643.649176432676) rotate(0 70.3125 12)"><text x="0" y="0" font-family="Cascadia, Segoe UI Emoji" font-size="20px" fill="#f08c00" text-anchor="start" style="white-space: pre;" direction="ltr" dominant-baseline="text-before-edge">Client Width</text></g><g stroke-linecap="round"><g transform="translate(705.5594757356121 184.84369757274862) rotate(0 -344.8374213264751 0.8540532501893949)"><path d="M-0.68 0.15 C-236.09 1.93, -472.25 1.88, -689.08 1.2 M-0.25 -0.35 C-191.71 0.49, -383.18 1.27, -689.43 2.05" stroke="#9c36b5" stroke-width="4" fill="none"></path></g></g><mask></mask><g stroke-linecap="round"><g transform="translate(83.52423063912465 185.8406068261976) rotate(0 0.7913448545159554 191.75029061128464)"><path d="M0.95 0.53 C1.75 115.56, 2.44 229.56, 1.68 383.91 M-0.43 -0.5 C0.87 127.77, 1.47 255.45, 1.83 384" stroke="#9c36b5" stroke-width="4" fill="none"></path></g><g transform="translate(83.52423063912465 185.8406068261976) rotate(0 0.7913448545159554 191.75029061128464)"><path d="M-6.92 356.74 C-5.86 365.7, -2.81 372.88, 0.64 383.81 M-9.24 355 C-5.34 365.2, -2.21 374.4, 0.9 383.96" stroke="#9c36b5" stroke-width="4" fill="none"></path></g><g transform="translate(83.52423063912465 185.8406068261976) rotate(0 0.7913448545159554 191.75029061128464)"><path d="M13.6 356.66 C8.53 365.57, 5.45 372.76, 0.64 383.81 M11.28 354.93 C8.35 365.18, 4.65 374.4, 0.9 383.96" stroke="#9c36b5" stroke-width="4" fill="none"></path></g></g><mask></mask><g transform="translate(17.976291934697656 594.1907525161595) rotate(0 70.3125 12)"><text x="0" y="0" font-family="Cascadia, Segoe UI Emoji" font-size="20px" fill="#f08c00" text-anchor="start" style="white-space: pre;" direction="ltr" dominant-baseline="text-before-edge">Scroll Width</text></g></svg>