<svg version="1.1" xmlns="http://www.w3.org/2000/svg" viewBox="0 0 1062.5341842269463 753.6202107407752" width="1062.5341842269463" height="753.6202107407752">
  <!-- svg-source:excalidraw -->
  
  <defs>
    <style class="style-fonts">
      @font-face {
        font-family: "Virgil";
        src: url("https://excalidraw.com/Virgil.woff2");
      }
      @font-face {
        font-family: "Cascadia";
        src: url("https://excalidraw.com/Cascadia.woff2");
      }
    </style>
    
  </defs>
  <rect x="0" y="0" width="1062.5341842269463" height="753.6202107407752" fill="#ffffff"></rect><g stroke-linecap="round" transform="translate(10 11.63219202090886) rotate(0 193.8582128265507 365.9093237727822)"><path d="M0 0 C0 0, 0 0, 0 0 M0 0 C0 0, 0 0, 0 0 M0 7.06 C1.23 4.56, 2.82 3.89, 5.47 -0.39 M-0.53 6.23 C1.64 4.41, 3.71 2.01, 5.04 0.7 M-1.19 12.73 C1.33 10.78, 4.19 5.34, 9.98 0.57 M0.69 11.52 C3.5 9.58, 5.98 5.66, 11.22 -0.09 M0.5 19.92 C5.25 13.24, 8 8.64, 16.86 2.17 M-0.38 17.49 C6.85 11.36, 11.06 3.97, 15.06 -0.25 M-0.4 25.02 C3.5 19.77, 10.37 10.44, 19.46 0.25 M1.02 23.87 C4.72 16.99, 11.66 10.89, 21.45 -0.81 M1.11 31.6 C6.18 22.35, 14.38 14.76, 25.8 1.06 M0.86 31.35 C6.16 24.12, 12.58 16.72, 25.66 -0.24 M-1.53 34.95 C10.1 23.81, 22.86 7.06, 30.6 1.02 M-0.29 36.34 C9.25 27.28, 18.15 17.38, 32.73 0.77 M0.55 44.18 C6.9 31.74, 16.97 22.97, 37.22 -1.39 M-0.3 41.83 C13.04 28.12, 25.92 14.5, 36.28 0.98 M1 50.23 C10.19 35.77, 21.24 25.62, 44.21 0 M0.41 49.23 C12.82 32.26, 28.41 15.85, 42.54 -0.75 M0.16 56.22 C14.18 35.02, 30.17 20.64, 47.36 -1.24 M0.31 53.77 C13.05 39.18, 28.77 21.38, 47.01 0.19 M-0.87 61.19 C14.01 47.77, 24.69 30.37, 54.29 1.57 M-0.65 60.23 C14.01 43.76, 28.38 26.41, 52.48 0.8 M1.67 66.51 C17.8 48.42, 34.91 25.07, 58.49 -0.11 M0.42 68.25 C17.92 46.33, 35.54 25.11, 57.69 0.16 M-0.48 71.84 C18.21 50.51, 40.68 27.63, 61.89 -0.38 M-0.81 72.3 C16.5 54.57, 31.93 37.45, 63.37 0.06 M-0.2 81.05 C19.71 55.54, 40.98 30.27, 68.92 0.86 M-1.01 78.6 C26.09 49.38, 49.95 20.82, 68.87 0.68 M0.85 86.66 C27.66 54.95, 53.43 24.44, 73.08 -0.5 M-0.71 85.44 C29.22 52.2, 56.77 18.64, 74.25 -0.79 M0.34 91.55 C23.86 63.97, 46.14 40.98, 78.98 -1 M-0.77 91.94 C23.7 63.83, 47.82 34.71, 78.86 -0.44 M-0.84 97.36 C26.19 65.63, 55.24 32.54, 84.95 0.01 M0.11 98.38 C29.56 64.05, 59.59 28.32, 85.43 -1.05 M0.77 102.45 C36.35 62.24, 71.82 19.21, 89.04 0.11 M0.24 103.15 C26.91 74.2, 51.82 43.53, 90.68 -0.38 M0.51 109.86 C25.1 80.75, 52.94 49.15, 95.63 -0.55 M0.81 110.63 C36.65 69.53, 72.97 28.51, 95.42 -0.53 M-0.42 113.67 C27.66 83.3, 52.29 53.89, 101.49 0.47 M-0.65 114.62 C37.72 71.64, 75.75 28.45, 101.11 -0.29 M-0.98 122.8 C26.32 92.31, 52.28 60.06, 106.29 1.56 M0.3 121.98 C22.03 95.6, 44.65 68.29, 105.99 -0.5 M1.67 127.34 C32.36 91.26, 63.13 57.34, 110.76 0.79 M0.48 128.02 C38.64 83.58, 76.58 40.17, 111.65 -0.33 M1.49 134.54 C33.13 99.68, 61.24 62.65, 114.47 2.31 M0.91 134.45 C25.7 107.68, 48.6 80.5, 116.47 0.04 M-1.08 138.78 C41.7 95.82, 79.91 47.37, 121.31 0.3 M-0.25 140.27 C28.33 108.77, 56.71 76.27, 121.52 -0.62 M0.76 145.92 C45.08 95.79, 90.33 44.93, 126.71 0.9 M0.68 146.12 C27.73 115.01, 55 82.95, 127.4 0.32 M0.24 151.21 C32.67 112.85, 66.47 74.58, 133.52 -1.21 M0.49 152.98 C29.99 119.7, 58.14 85.81, 132.68 -0.26 M0.88 158.96 C32.14 123.71, 62.25 89.01, 136.7 2 M-0.26 158.81 C40.55 114.67, 80.18 68.39, 137.58 -0.53 M0.31 165.8 C52.32 104.27, 108.23 42.87, 142.36 -1.75 M1 164.78 C49.11 105.77, 99.83 47.47, 142.93 -0.37 M-1.29 171.83 C38.84 123.84, 81.65 78.18, 149.24 -0.04 M-0.09 170.2 C54.51 105.15, 111.92 40.72, 147.78 0.01 M0.72 175.07 C57.93 110.46, 114.86 45.91, 153.72 0.79 M0.91 176.56 C34.84 135.52, 70.26 94.35, 154.42 -0.93 M-0.43 182.1 C62.09 112.65, 123.14 41.51, 159.38 -0.74 M-0.17 182.85 C40.53 138.15, 79.05 93.21, 158.75 0.39 M-0.29 189.03 C35.22 147.93, 69.43 106.81, 164.57 0.46 M-0.61 189.48 C47.68 133.03, 96.07 76.97, 163.92 -0.33 M0.74 195.41 C47.85 139.08, 95.6 84.46, 168.44 -1.38 M0.32 195.12 C56.82 128.73, 116.57 60.88, 168.93 -0.32 M0.02 202.79 C43.68 153.01, 87.33 103.24, 175.43 -1.24 M0.19 201.21 C59.73 134.44, 117.52 66.74, 175.48 0.49 M-0.14 207.71 C71.44 122.39, 144.17 41.13, 181.48 -0.38 M-0.44 206.38 C61.43 137.51, 122.11 68.38, 180.26 -0.21 M0 213.72 C50.36 152.43, 104.69 92.73, 185.29 -1.12 M0.37 212.94 C38.63 171.01, 76.91 126.64, 186.35 -0.8 M-1.27 221.08 C73.29 134, 146.45 50.38, 190.15 -1.27 M-0.4 219.84 C70.57 136.74, 143.05 54.8, 190.85 -0.23 M0.98 225.89 C59.67 158.56, 120.46 86.71, 196.21 1 M0.31 225.44 C59.4 157.17, 118.12 90.16, 196.14 0.4 M0.83 232.63 C47.52 176.31, 98.13 119.35, 202.47 1.16 M0.3 231.09 C45.21 177.17, 92.95 124.25, 200.69 -0.09 M-0.81 236.75 C79.49 147.6, 156.99 59.08, 205.75 -1.5 M0.51 237.6 C56.83 171.27, 113.42 106.97, 207.16 -0.42 M0.43 243.61 C80.6 154.6, 158.54 64.22, 210.72 1.31 M-0.44 243.93 C76.78 157.58, 154.18 68.3, 212.01 -0.6 M0.98 251.34 C69.63 169.09, 141.05 87.82, 217.3 -0.33 M0.25 249.57 C72.08 169.81, 141.28 89.36, 217.81 -0.99 M1.21 254.8 C68.03 179.77, 134.8 103.34, 222.37 -0.64 M0.64 256.32 C51.79 197.36, 104.65 136.24, 222.87 -0.08 M-1.38 260.97 C59.29 191.9, 119.81 122.92, 227.2 0.09 M-0.41 261.63 C70.29 181.13, 139.93 101.82, 227.86 -0.66 M-0.09 268.44 C90.8 163.21, 182.24 58.56, 232.9 -1 M-0.26 267.81 C51.22 209.14, 101.77 150.29, 233.69 -0.64 M0.74 273.77 C64.64 201, 125.83 129.41, 239.27 -0.42 M0.13 273.89 C52.46 212.73, 104.73 152.64, 238.17 -0.01 M0.56 280.06 C78.66 190.39, 157.63 98.64, 244.01 0.57 M-0.41 280.62 C68.96 202.64, 136.15 124.46, 243.72 -0.64 M1.34 286.07 C69.82 206.14, 141.12 124.8, 247.75 -0.26 M0.3 286.68 C83.75 190.46, 166.58 95.63, 248.78 0.75 M0.15 292.29 C100.81 177.05, 203.18 59.74, 254.22 0.49 M-0.51 293.32 C72.92 209.13, 144.5 126.21, 254.28 0.38 M-0.55 297.86 C62.77 223.23, 128.83 149.15, 259.92 -0.41 M0.62 298.28 C64.48 226.18, 127.63 153.14, 259.52 0.56 M-1.07 305.11 C63.49 231.56, 126.98 159.29, 265.12 -0.04 M-0.25 305.05 C82.49 209.39, 163.73 116.5, 265.45 0.31 M0.78 311.86 C97.23 199.88, 193.92 88.14, 270.31 1.24 M-0.08 311.06 C58.2 244.22, 116.83 177.18, 269.55 0.15 M0.92 317.04 C79.89 224.47, 161.6 130.39, 275.38 0.77 M-0.04 316.62 C87.95 213.7, 177.59 111.22, 275.82 -0.2 M0.92 322.62 C108.33 197.5, 218.99 70.68, 280.67 0.39 M-0.27 323.01 C73.26 239.49, 146.77 154.69, 280.68 0.65 M1.23 329.14 C97.34 215.78, 195.95 101.77, 286.44 0.07 M0.17 329.21 C87.13 228.59, 174.88 128.59, 286.38 0.19 M0.97 335.39 C113.66 206.06, 226.11 75.61, 291.5 0.7 M-0.31 335.22 C69.1 254.08, 140.09 172.64, 291.26 0 M0.1 342.3 C112.95 212.6, 223.41 83.84, 297.1 0.08 M-0.38 341.66 C98.77 230.13, 196.04 117.07, 296.61 -0.1 M0.07 346.98 C111.2 219.91, 223.56 91.54, 301.32 -0.25 M0.63 347.28 C111.04 217.67, 222.8 88.93, 302.17 -0.14 M-0.43 353.52 C97.1 240.98, 195.23 130.53, 306.85 0.54 M-0.12 354.09 C83.6 257.18, 168.05 160.88, 308.02 0.17 M-0.24 359.89 C74.43 278.06, 146.16 193.07, 313.38 0.23 M0.62 359.53 C99.84 246.89, 199.12 133.82, 312.23 -0.23 M0.47 365.14 C96.73 254.89, 192.19 145.72, 318.32 0.15 M0.37 366.02 C102.36 249.6, 202.06 134.07, 318.06 -0.34 M0.19 372.49 C77.98 282.95, 156.77 192.28, 323.59 -0.54 M-0.32 372.36 C94.11 262.39, 189.04 153.56, 323.32 -0.21 M0.71 378.59 C67.14 300.89, 134.32 224.42, 329.13 -0.71 M-0.13 377.66 C78.95 288.58, 157.1 198.67, 328.81 -0.49 M0.57 384.31 C113.45 251.58, 227.75 121.66, 334.27 -0.58 M-0.24 384.59 C125.98 240.93, 250.02 97.34, 333.68 -0.03 M1 389.87 C103.66 269.44, 208.68 148.73, 340.14 0.38 M0.31 389.96 C108.49 264.65, 217.58 138.94, 339.39 -0.7 M-0.37 395.97 C84.77 299.36, 166.91 203.6, 344.22 0.47 M0.45 395.87 C129.04 247.59, 258.01 99.24, 344.41 0 M-0.36 402.44 C82.87 307.07, 165.46 213.59, 350.23 -0.04 M0.02 402.63 C87.16 301.81, 175.19 201.11, 349.19 0.01 M0.26 408.72 C116.96 272.91, 234.33 137.43, 354.68 -0.77 M0.54 408.12 C133.81 255.62, 265.32 104.27, 354.86 0.37 M-0.63 415.24 C75.44 325.35, 153.59 236.65, 359.87 0.91 M-0.02 414.71 C78.07 326.09, 154.48 237.51, 360.08 0.58 M-0.48 420.36 C135.48 264.91, 272.89 106.91, 365.34 0.49 M-0.55 421 C142.69 258.15, 284.28 95.38, 365.49 -0.43 M-0.67 426.49 C77.16 336.95, 154.18 248.3, 371.19 0.19 M0.32 426.33 C146.63 258.71, 293.27 91.41, 370.45 0.4 M0.04 432.63 C150.17 259, 299.85 86.08, 376.67 0.43 M-0.54 433.32 C110.47 303.97, 221.84 175.67, 376.63 0.09 M0.18 439.4 C76.56 351.8, 152.72 261.9, 381.79 0.96 M0.11 438.45 C107.46 314.67, 214.03 192.11, 381.45 -0.08 M0.51 445.3 C85.97 346.41, 171.29 247.4, 387.56 0.23 M-0.2 444.76 C125.59 300.06, 251.94 154.96, 387.33 0.05 M0.3 451.75 C115.91 314.65, 233.73 179.58, 389.29 2.05 M-0.35 451.62 C140.22 288.21, 282.77 124.32, 389.95 2.48 M0.69 457.19 C123.61 317.14, 246.22 176.19, 390.52 8.75 M0.4 457.25 C140.14 296.48, 278.17 137.5, 390.1 8.26 M-0.75 463.24 C94.44 355.73, 186.91 248.66, 389.54 14.57 M-0.48 463.3 C91.31 358.04, 183.63 251.64, 390.3 14.47 M-0.07 469.29 C134.11 316.65, 265.97 165.29, 390.8 20.59 M0.14 468.94 C84.56 375.12, 167.48 279.61, 390.5 20.3 M-0.54 476.01 C103.31 358.79, 205.93 241.08, 390.71 27.24 M0.19 475.24 C115.86 343.08, 229.92 211.57, 390.46 26.36 M-1.04 481.55 C85.38 383.73, 170.86 284.68, 389.96 32.88 M-0.3 481.71 C148.38 311.4, 297.45 140.47, 390.27 33.28 M0.01 487.66 C99.14 372, 200.67 255.24, 390.44 39.18 M0.33 487.65 C87.49 385.74, 175.26 284.7, 390.34 38.62 M0.08 493.84 C101.53 377.62, 202.06 261.52, 389.85 44.42 M-0.18 493.82 C115.74 363, 230.91 231.76, 390.15 44.62 M0 499.15 C85.41 400.01, 172.49 300.58, 389.97 50.9 M0.47 499.52 C131.12 351.43, 261.13 202.73, 390.77 50.74 M-0.76 506.48 C92.52 399.34, 183.85 293.64, 389.58 57.27 M0.21 506.38 C90.39 401.6, 181.36 296.61, 390.38 57.21 M0.27 513.19 C146.29 341.88, 293.4 173.03, 389.53 62.67 M-0.42 512.22 C79.87 417.41, 161.63 323.37, 389.97 63.16 M0.66 518.01 C113.15 386.67, 225.94 254.69, 390.52 69.73 M0.07 518.35 C94.73 410.43, 188.9 301.81, 390.55 68.79 M0.46 524.01 C106.46 402.34, 213.07 280, 390.08 75.46 M-0.31 524.47 C100.94 409.82, 201.2 293.92, 389.87 75.46 M0.95 529.97 C100.51 414.43, 198.8 300.83, 390.05 81.08 M0.33 530.09 C157.27 351.49, 312.95 171.99, 390.17 81.11 M0.66 537.11 C108.98 409.42, 218.97 282.82, 390.28 88.3 M-0.01 536.43 C148.51 367.42, 296.13 197.12, 390.1 87.31 M-1.09 543.65 C122.82 400.66, 246.25 257.75, 389.72 93.15 M-0.64 542.95 C136.16 386.58, 272.47 229.54, 389.97 93.88 M-0.01 549.39 C117.81 414.77, 233.02 280.85, 389.82 99.26 M-0.23 548.74 C108.03 426.85, 215.05 304.08, 390.23 99.8 M0.5 554.64 C133.74 399.54, 269.67 243.91, 390.64 106.47 M-0.04 554.99 C149.86 384.56, 298.87 212.74, 390.14 106.14 M0.04 560.38 C94.56 453.41, 186.76 346.69, 391.21 111.78 M-0.16 560.43 C135.86 403.26, 271.63 247.61, 390.36 111.85 M-0.28 567.8 C151.46 391.95, 303.88 217.4, 390.38 117.66 M0.3 566.76 C133.18 412.44, 266.68 259.18, 390 118.03 M0.1 573.71 C132.68 418.58, 267.85 264.74, 390.34 125.06 M-0.15 573.3 C78.9 481.44, 159.38 389.26, 389.99 124.54 M-0.33 579.03 C140.42 419.36, 280.1 258.91, 391.18 129.94 M0.07 579.45 C124.12 434.85, 248.82 291.7, 390.22 129.72 M-0.93 585.36 C110.26 458.65, 219.85 333.8, 389.45 136.61 M-0.3 585.28 C140.22 425.57, 279.3 265.75, 390.31 136.09 M-0.19 591.19 C131.54 436.51, 264.99 283.35, 390.47 141.93 M0.26 591.27 C140.4 428.74, 281.59 266.23, 390.96 141.77 M0.3 596.96 C92.8 491.85, 185.74 386.31, 390.83 149.21 M0.03 597.79 C121.68 457.65, 242.44 318.17, 390.61 148.37 M-0.59 604.5 C120.26 466.49, 239.88 329.6, 390.67 155.6 M-0.3 604.17 C145.46 438.85, 289.3 273.74, 390.02 154.75 M0.6 610.36 C85.63 508.89, 174.16 408.48, 390.66 160.64 M0.41 609.9 C107.89 487.54, 214.25 365.01, 390.56 160.34 M-0.71 615.91 C149.27 441.9, 299.08 270.17, 389.75 167.62 M-0.33 615.66 C150.89 444.28, 301.37 271.28, 389.86 167.31 M-0.02 621.2 C148.14 450.63, 295.6 281.6, 390.31 173.31 M-0.08 621.85 C101.29 505.88, 203.17 388.88, 390.7 172.33 M0.32 627.61 C149.23 456.68, 298.58 282.73, 390.95 179.54 M-0.4 627.71 C121.52 486.38, 243.5 345.43, 390.08 178.83 M0.23 634.87 C97.7 517.94, 197.89 403.12, 390.11 186.14 M0.08 634.69 C149.56 460.49, 299.52 287.75, 389.81 185.65 M0.44 640.02 C115.48 507.78, 229.58 376.91, 390.16 190.72 M0.05 640.16 C78.94 549.39, 158.33 458.19, 390.41 190.7 M0.29 646.69 C131.99 492.53, 266 340.24, 389.58 197.18 M-0.14 646.77 C141.31 485.47, 282.41 322.97, 390.33 197.55 M-0.39 651.75 C142.36 489.71, 285.37 324.69, 390.49 203.12 M0.08 651.83 C140.17 489.35, 281.51 326.2, 390.48 202.74 M-0.42 658.41 C130.87 505.78, 265.18 352.53, 390.68 208.95 M0.16 658.75 C79.97 565.88, 160.48 473.66, 390.06 209.35 M-0.08 664.37 C90.51 560.75, 180.58 456.39, 389.6 216.45 M-0.61 664.92 C93.3 555.7, 187.99 446.7, 390.36 215.91 M-0.23 671.22 C108.61 544, 217.72 417.7, 390.04 221.37 M0.43 670.92 C132.43 518.41, 265.19 366.05, 390.69 221.41 M-0.52 676.95 C154.87 501.77, 307.92 326.71, 389.54 227.51 M-0.27 676.76 C135.29 519.93, 272.25 362.55, 390.38 228.14 M0.13 682.52 C84.68 586.36, 167.88 489.74, 390.29 233.37 M0.02 682.77 C108.76 558.3, 217.49 432.92, 390.46 233.52 M0.41 688.21 C128.49 543.5, 255.44 396.77, 390.4 240.4 M-0.2 688.75 C135.67 533.62, 269.57 379.1, 390 239.99 M-0.68 695.41 C124.81 552.09, 249.15 409.3, 390.63 246.03 M-0.5 695.76 C136.14 537.82, 271.69 382.41, 390.21 246.01 M-0.47 700.73 C147.82 528.12, 296.77 355.33, 390.54 251.4 M-0.18 701.37 C130.1 551.43, 261.02 401.04, 390.82 252.12 M0.35 706.96 C152.55 532.14, 305.45 356.65, 390.24 258.72 M-0.28 707.49 C143.41 542.39, 287.03 376.96, 390.06 258.75 M-0.37 712.86 C110.67 584.43, 221.92 456.33, 389.93 263.43 M0.52 712.87 C150.67 541.96, 299.79 370.1, 390.76 263.96 M-0.52 719.86 C138.37 557.48, 278.61 397.01, 389.94 269.71 M-0.15 719.83 C141.41 556.76, 282.82 394.08, 390.65 270.51 M0.1 725.08 C90.44 621.48, 180.87 516.96, 390.3 276.3 M-0.32 726.07 C79.62 636.85, 158.19 546.55, 390.13 276.51 M0.85 732.24 C141.49 570.67, 281.22 408.92, 390.83 281.85 M0.4 731.52 C100.66 615.27, 203.02 497.63, 390.58 282.68 M3.57 734.04 C154.86 559.29, 307.51 383.99, 390.55 289.4 M3.2 733.96 C100.71 621.28, 198.84 508.25, 389.95 288.92 M8.48 734.97 C112.62 615.89, 216.3 496.54, 390.54 295.37 M8.47 734.21 C157.08 564.41, 305.82 393.38, 390.26 295.62 M13.37 734.48 C92.41 641.53, 173.07 550.32, 390.04 300.51 M14.16 734.07 C111.95 624.04, 208.8 512.8, 390.74 301.01 M18.88 734.98 C161.15 571.12, 302.8 407.43, 389.9 307.21 M18.72 734.69 C157.27 573.88, 297.78 412.65, 390.19 307.65 M25.15 733.81 C134.83 606.06, 246.26 477.32, 390.4 313.3 M24.07 733.77 C127.61 617.66, 228.87 500.7, 390.77 313.04 M29.59 734.8 C141.63 604.67, 254.39 475.15, 389.79 319.57 M29.51 734.71 C121.42 630.08, 213.25 524.71, 390.6 319.12 M35.79 734.1 C163.81 587.04, 291.21 438.85, 390.19 325.15 M34.9 734.37 C119.86 637.9, 203.09 541.31, 389.96 326.03 M40 734.89 C142.77 614.23, 247.5 494.06, 389.75 331.26 M40.14 734.62 C162.41 592.44, 286.49 450.63, 390.43 331.47 M44.97 733.23 C132.06 633.48, 217.89 534.58, 389.98 337.76 M45.96 734.16 C116.39 655.03, 185.03 574.46, 390.48 337.57 M51.12 734.35 C154.41 616.75, 258.45 496.27, 389.72 344.1 M51 734.38 C120.42 653.71, 191.58 572.78, 390.36 343.53 M55.34 734.43 C158.3 618.5, 260.44 500.75, 390.77 349.7 M55.97 734.41 C154.09 620.16, 253.16 505.44, 390.03 349.89 M61.53 734.81 C167.12 613.29, 271.31 492.82, 390.22 356.45 M61.58 733.95 C145.01 637.1, 228.51 540.7, 390.08 355.9 M66.34 734.43 C143.52 644.51, 220.8 556.47, 391.05 362.17 M66.12 734.3 C194.84 585.76, 323.69 438.65, 390.47 361.67 M71.44 734.97 C153.56 642.89, 231.79 550.13, 389.29 369.04 M71.62 734.51 C178.11 613.91, 282.77 493.46, 389.72 368.31 M77.47 735.29 C149.44 650.02, 222.18 565.63, 390 374.14 M76.51 734.33 C146.81 654.78, 216.81 573.28, 390.32 374.05 M81.9 734.34 C154.31 652.47, 227.09 570.02, 390.89 380.46 M82.44 733.95 C198.4 601.21, 313.06 468.9, 390.47 380.6 M86.61 733.74 C161.97 649.44, 238.37 561.51, 389.6 387.19 M87.7 734.43 C166.56 645.24, 245.4 555.06, 390.24 386.85 M92.35 734.48 C187.5 624.46, 284.53 514.33, 389.73 391.66 M93.19 733.96 C191.01 624.21, 287.01 513.37, 389.94 392.32 M97.52 735.25 C191.8 628.59, 283.95 522.48, 389.58 398.06 M98.58 734.3 C166.1 657.81, 232.52 581.48, 390.13 398.38 M103.11 734.53 C161.8 667.09, 219.65 599.42, 390.92 404.57 M103.67 734.63 C169.02 660.6, 232.91 587.52, 390.86 404.21 M108.14 734.9 C176.93 655.14, 246.1 576.97, 389.39 409.81 M108.37 734.86 C167.35 665.42, 225.84 598.18, 390.03 410.76 M114.61 733.67 C191.49 645.64, 266.66 558.21, 389.96 417.75 M114.03 734.45 C201.32 635.72, 286.75 536.52, 389.62 417.7 M118.66 735.09 C200.06 641.34, 280.95 546.88, 390.27 422.23 M119.55 734.76 C210.46 629.2, 302.55 523.25, 390.63 422.4 M123.98 734.52 C221.44 619.99, 318.3 507.97, 389.66 430.07 M125.44 733.83 C216.48 630.72, 306.67 526.41, 390.28 428.98 M131.06 735.02 C220.84 629.37, 310.66 523.92, 391.47 435.29 M130.1 734.98 C205.21 645.4, 282.12 556.67, 390.93 435.36 M134.88 733.49 C195.89 664.07, 255.72 596.97, 389.45 442.42 M136.2 733.9 C200.36 659.22, 264.73 585.8, 389.74 441.64 M141.11 733.39 C216.76 647.13, 292.88 558.13, 390.2 448.81 M140.14 734.01 C196.19 672.65, 250.52 610.25, 390.08 448.1 M145.53 735.16 C206.32 667.13, 264.75 597.44, 391.28 453.43 M146.58 733.54 C217.42 650.31, 291.2 566.36, 390.74 453.27 M150.69 734.6 C216.08 659.26, 282.95 584.96, 390.27 460.43 M151.84 734.13 C244.96 627.82, 338.63 521.44, 389.63 459.5 M156.43 734.98 C226.24 654.81, 295.05 576.86, 390.44 466.25 M157.35 733.38 C233.62 646.14, 308.58 558.58, 390.3 465.78 M162.73 733.08 C212.26 674.32, 264.42 615.69, 390.14 471.53 M161.35 733.8 C239.77 643.05, 319.56 551.24, 390.37 472.13 M166.16 735.37 C236.42 657.12, 307.92 577.06, 390.72 478.34 M167.28 734.89 C228.48 661.72, 290.86 590.04, 390.37 478.56 M171.83 734.11 C237.03 658.87, 302.54 582.42, 391.46 483.19 M173.21 734.3 C255.2 638.04, 338.76 542.15, 390.38 483.32 M177.96 734.29 C250.21 653.33, 320.37 570.81, 391.08 489.5 M177.51 735.34 C247.19 656.24, 315.42 577.84, 389.98 489.53 M183.72 735.04 C253.47 657.1, 319.67 580.99, 389.14 495.59 M182.93 733.92 C230.44 677.87, 279.64 621.33, 390.07 495.68 M189.1 733.7 C236.54 680.24, 285.83 624.59, 390.25 503.09 M188.43 734.07 C249.31 662.6, 310.16 593.1, 389.54 502.03 M192.63 733.82 C250.51 668.85, 307.87 604.67, 391.28 510.03 M193.56 734.01 C232.21 687.49, 271.37 642.16, 389.79 509.3 M200.21 735.34 C238.54 689.39, 279.56 642.5, 391.35 515.71 M198.82 734.69 C253.85 674.22, 307.61 611.36, 390.49 514.24 M204.84 733.8 C250.84 679.37, 298.17 624.19, 389.6 521.37 M204.28 734.22 C243.75 686.74, 286.16 639.56, 390.33 520.39 M210.45 733.79 C255.64 679.71, 306.49 622.75, 390.98 527.69 M210.15 735.19 C249.52 691.98, 287.25 648.75, 390.81 525.98 M214.18 733.7 C262.18 681.2, 306.28 628.02, 391.29 532.93 M215.05 734.58 C283.21 653.99, 350.93 575.27, 390.95 532.62 M218.94 736.07 C277.52 667.31, 335.05 603.91, 388.63 539.74 M219.89 734.07 C260.2 685.31, 303.1 637.9, 389.28 539.01 M224.22 734.86 C261.71 691.68, 301.05 646.59, 390.72 546.35 M226.07 734.71 C269.3 683.74, 311.61 635.13, 389.75 544.46 M229.65 735.65 C296.4 662.8, 357.75 589.64, 391.63 551.52 M229.92 734.58 C271.43 686.05, 312.56 638.2, 390.93 551.77 M234.87 733.28 C274.34 693.82, 309.4 651.23, 391.61 557.2 M236.89 734.6 C286.6 675.65, 336.94 619.12, 390.22 556.69 M240.3 735.76 C292.25 677.01, 341.23 622.01, 389.9 564.66 M241.28 734.48 C285.93 682.72, 330.95 631.06, 390.96 562.78 M246.89 734.45 C282.53 694.9, 319.13 653.94, 388.83 570.28 M247.2 733.85 C293.76 680.97, 341.13 626.38, 390.23 569.23 M253.6 735.21 C286.17 695.98, 318.07 661.82, 389.58 574.41 M251.38 734.74 C299.51 678.58, 347.8 622.49, 391.07 575.31 M256.7 735.09 C308.49 675.45, 362.2 614.97, 389.46 581.9 M257.78 734.25 C308.83 672.92, 361.27 614.41, 390.08 582.33 M261.62 732.94 C308.6 683.76, 350.21 631.73, 391.33 585.65 M263.53 733.7 C305.49 683.57, 350.53 631.16, 389.67 587.12 M268.62 734.78 C302.03 695.93, 333.14 660.25, 390.11 592.59 M267.85 733.63 C297.77 696.9, 328.42 661.84, 389.52 593.17 M272.7 734.36 C310.36 687.66, 350.16 646.41, 390.31 599.11 M273.32 733.45 C318.75 682.24, 363.35 629.89, 389.54 600.76 M278.88 734.22 C308.31 700.44, 339.36 662.58, 391.65 606.7 M279.75 734 C301.93 704.46, 326.86 677.2, 389.89 606.47 M284.21 733.58 C319.21 691.27, 357.25 649.38, 388.29 612 M284.81 735.27 C317.96 697.04, 349.74 657.03, 389.86 612.17 M287.64 734.74 C313.49 705.69, 340.13 675.2, 388.81 619.11 M289.47 733.75 C312.64 707.33, 337.92 678.22, 390.26 617.39 M295.38 735.04 C315.48 708.94, 338.05 686.58, 392.21 625.39 M293.86 734.39 C324.26 699.45, 355.83 664.8, 391.04 624.04 M300.21 732.78 C319.55 709.75, 342.48 685.47, 391.83 629.85 M300.17 735.49 C320.47 707.89, 343.33 682.36, 389.74 630.75 M305.44 735.67 C326.64 708.07, 350.47 684.82, 390.71 635.08 M305.07 735.08 C334.88 699.88, 366.51 665.25, 390.35 635.83 M308.92 734.51 C333.79 707.48, 359.5 679.91, 390.91 643.2 M309.29 735.63 C339.63 699.19, 369.95 664.51, 389.17 643.13 M315.66 734.86 C331.5 714.25, 349.95 695.47, 391.44 646.3 M314.76 733.62 C336.68 708.78, 360.67 683.06, 390.28 647.5 M321.82 734.79 C345.76 705.01, 368.93 677.07, 390.31 654.13 M320.15 734.31 C345.18 706.67, 371.44 677.81, 390.13 654.39 M327.35 732.47 C350.95 706.16, 376.91 677.43, 390.44 660.54 M325.99 733.3 C342.7 716.93, 357.97 699.88, 390.94 661.3 M331.98 735.97 C349.06 710, 369.35 690.68, 389 667.37 M332.29 735.22 C352.61 711.23, 371.34 687.54, 390.61 665.66 M335.84 734.83 C350.2 718.85, 362.74 707.22, 388.75 674.47 M337.57 733.41 C354.99 713.51, 372.35 694.1, 389.6 673.74 M343.49 733.87 C357.35 714.78, 377.07 695.96, 389.97 680.07 M342.51 734.55 C353.73 721.14, 365.09 707.6, 391.34 679.06 M348.5 732.75 C363.16 715.71, 379.19 695.77, 390.48 686.51 M347.03 734.3 C362.96 716.38, 378.66 697, 389.83 685.06 M353.5 735.76 C366.02 717.36, 382.98 702.41, 389.59 692.64 M351.84 734.01 C361.21 723.66, 370.56 715.39, 390.1 691.5 M358.73 735.47 C368.01 723.61, 377.55 711.7, 391.4 695.78 M357.62 734.3 C366.74 726.49, 373.76 717.71, 391.07 697.32 M362.15 734.41 C370.57 726.29, 375.99 720.96, 390.21 703.67 M362.54 733.81 C368.31 726.98, 375.32 722.11, 389.41 702.64 M367.95 732.75 C375.57 726.52, 384.14 715.88, 392.35 708.88 M369.36 734.76 C377.8 724.43, 386.45 715.69, 391 710.07 M374.64 734.03 C380.99 729.3, 386.62 723.6, 390.28 716.51 M373.08 733.69 C380.64 726.63, 386.95 719.56, 389.52 716.42 M379.6 733.04 C383.01 730.96, 384.91 726.32, 388.8 722.49 M379.89 733.25 C382.55 731.8, 384.49 728.56, 389.91 722.08 M383.92 735.26 C387.1 733.2, 387.1 730.24, 389.73 726.97 M384.83 734.18 C385.54 732.46, 387.64 731.26, 390.27 727.35" stroke="#ffffff" stroke-width="0.5" fill="none"></path><path d="M-0.91 0.64 C101.18 -1.15, 202.66 -1.18, 387.04 -1.01 M-0.09 0.19 C95.02 -1.12, 190.33 -0.35, 387.99 -0.52 M387.75 0.14 C386.82 189.74, 386.13 379.34, 387.42 732.17 M388.08 -0.4 C389.86 192.35, 390.05 383.66, 387.61 731.92 M388.54 732.9 C306.6 733.79, 225.22 733.64, -0.64 731.24 M387.18 731.53 C256.69 731.04, 126.18 730.29, -0.5 731.35 M-0.05 731.81 C2.67 532.72, 1.96 331.64, 0.5 0.26 M0.34 731.68 C3.22 447.83, 3.26 163.59, -0.05 0.02" stroke="#1e1e1e" stroke-width="1" fill="none"></path></g><g stroke-linecap="round" transform="translate(10.574043789722054 118.45347441832632) rotate(0 192.16643170845418 249.2543091308611)"><path d="M0.42 1.21 L383.54 -0.59 L385.69 499.41 L-0.33 498.24" stroke="none" stroke-width="0" fill="#ffffff"></path><path d="M0.33 -0.42 C128.77 -1.69, 254.95 -2.27, 383.68 0.62 M-0.05 -0.27 C129.82 -0.23, 259.53 -1.26, 384.09 -0.17 M384.25 -0.32 C383.65 140, 384.11 281.88, 384.03 499.08 M384.38 0.37 C386.4 118.11, 386.05 236.95, 383.97 498.52 M384.35 499.41 C250.59 501.36, 116.66 500.02, 0.45 498.2 M384.18 499 C290.58 497.11, 195.88 496.91, -0.16 497.98 M0.07 499.3 C-0.53 328.56, 0.62 159.71, 0.71 -0.79 M0.36 498.63 C-1.32 342.3, -1.77 186.16, 0.04 0.39" stroke="#2f9e44" stroke-width="4" fill="none"></path></g><g stroke-linecap="round"><g transform="translate(207.6522726953881 118.97163523597885) rotate(0 -3.640863910925873 248.20759126953607)"><path d="M0.66 -0.3 C-2.69 175.58, -5.47 353, -7.56 496.58 M0.13 0.34 C-2.59 164.57, -5.55 329.77, -7.94 496.72" stroke="#9c36b5" stroke-width="4" fill="none"></path></g></g><mask></mask><g stroke-linecap="round"><g transform="translate(209.03552360793765 170.8168315260035) rotate(0 157.24729250790188 -1.019526168923619)"><path d="M-0.81 -1.22 C82.63 1.21, 167.34 -0.12, 315.31 -1.51 M0.33 -0.63 C79.62 -2.44, 159.68 -2.56, 314.98 -1.46" stroke="#9c36b5" stroke-width="4" fill="none"></path></g><g transform="translate(209.03552360793765 170.8168315260035) rotate(0 157.24729250790188 -1.019526168923619)"><path d="M285.58 6.92 C293.04 7.12, 302.36 3.09, 315.62 -1.62 M287.2 7.76 C293.46 5.56, 300.86 3.32, 315.15 -1.56" stroke="#9c36b5" stroke-width="4" fill="none"></path></g><g transform="translate(209.03552360793765 170.8168315260035) rotate(0 157.24729250790188 -1.019526168923619)"><path d="M285.69 -13.6 C293.28 -7.96, 302.58 -6.55, 315.62 -1.62 M287.31 -12.76 C293.61 -9.75, 300.98 -6.78, 315.15 -1.56" stroke="#9c36b5" stroke-width="4" fill="none"></path></g></g><mask></mask><g transform="translate(545.3818238878193 155.86922146364373) rotate(0 76.171875 12)"><text x="0" y="0" font-family="Cascadia, Segoe UI Emoji" font-size="20px" fill="#f08c00" text-anchor="start" style="white-space: pre;" direction="ltr" dominant-baseline="text-before-edge">Client Height</text></g><g stroke-linecap="round"><g transform="translate(104.8058445153838 10.121442342549585) rotate(0 -2.6013587899496997 366.688663027838)"><path d="M0.3 -0.12 C-2.45 156.63, -4.17 313.63, -4.45 733.5 M-0.07 0.02 C-2.19 154.63, -3.5 308.97, -5.5 732.97" stroke="#9c36b5" stroke-width="4" fill="none"></path></g></g><mask></mask><g stroke-linecap="round"><g transform="translate(106.50575559636854 59.07888147490746) rotate(0 239.05039845715964 1.2534889249729133)"><path d="M0.28 -0.07 C168 1.57, 337.54 2.66, 477.06 2.39 M0.08 -0.04 C129.73 0.24, 259.39 1.24, 478.02 2.58" stroke="#9c36b5" stroke-width="4" fill="none"></path></g><g transform="translate(106.50575559636854 59.07888147490746) rotate(0 239.05039845715964 1.2534889249729133)"><path d="M450.41 12.5 C458.77 9.8, 471.34 6.54, 476.24 1.77 M449.94 12.56 C457.08 8.96, 464.2 6.79, 478.46 2.2" stroke="#9c36b5" stroke-width="4" fill="none"></path></g><g transform="translate(106.50575559636854 59.07888147490746) rotate(0 239.05039845715964 1.2534889249729133)"><path d="M450.54 -8.02 C458.93 -3.49, 471.45 0.48, 476.24 1.77 M450.07 -7.96 C457.14 -5.98, 464.23 -2.57, 478.46 2.2" stroke="#9c36b5" stroke-width="4" fill="none"></path></g></g><mask></mask><g transform="translate(606.785060898801 45.20520170564453) rotate(0 158.203125 12)"><text x="0" y="0" font-family="Cascadia, Segoe UI Emoji" font-size="20px" fill="#f08c00" text-anchor="start" style="white-space: pre;" direction="ltr" dominant-baseline="text-before-edge">Scroll Height (totalHeight)</text></g><g stroke-linecap="round"><g transform="translate(396.95312850305345 469.9332923282875) rotate(0 157.65563238484629 -0.9243125015293572)"><path d="M-0.56 -1.34 C94.42 -0.74, 192.14 -1.16, 315.87 -2.28 M0.65 0.43 C122.52 -1.01, 246.33 -2.01, 314.88 -1.06" stroke="#9c36b5" stroke-width="4" fill="none"></path></g><g transform="translate(396.95312850305345 469.9332923282875) rotate(0 157.65563238484629 -0.9243125015293572)"><path d="M285.85 7.17 C293.32 5.26, 304.67 2.18, 316.31 -2.31 M287.55 9.67 C297 4.81, 309.08 0.21, 314.92 -0.58" stroke="#9c36b5" stroke-width="4" fill="none"></path></g><g transform="translate(396.95312850305345 469.9332923282875) rotate(0 157.65563238484629 -0.9243125015293572)"><path d="M285.96 -13.35 C293.42 -9.02, 304.75 -5.86, 316.31 -2.31 M287.65 -10.85 C296.86 -7.69, 308.89 -4.27, 314.92 -0.58" stroke="#9c36b5" stroke-width="4" fill="none"></path></g></g><mask></mask><g transform="translate(736.1279342269463 453.022858573999) rotate(0 158.203125 12)"><text x="0" y="0" font-family="Cascadia, Segoe UI Emoji" font-size="20px" fill="#f08c00" text-anchor="start" style="white-space: pre;" direction="ltr" dominant-baseline="text-before-edge">Scroll Top (scrollPosition)</text></g></svg>