<svg version="1.1" xmlns="http://www.w3.org/2000/svg" viewBox="0 0 1132.8802812025078 908.4591194755434" width="1132.8802812025078" height="908.4591194755434">
  <!-- svg-source:excalidraw -->
  
  <defs>
    <style class="style-fonts">
      @font-face {
        font-family: "Virgil";
        src: url("https://excalidraw.com/Virgil.woff2");
      }
      @font-face {
        font-family: "Cascadia";
        src: url("https://excalidraw.com/Cascadia.woff2");
      }
    </style>
    
  </defs>
  <rect x="0" y="0" width="1132.8802812025078" height="908.4591194755434" fill="#ffffff"></rect><g stroke-linecap="round" transform="translate(161.67288775429915 129.40641254909656) rotate(0 349.44540769880587 252.25326889814875)"><path d="M0 0 C0 0, 0 0, 0 0 M0 0 C0 0, 0 0, 0 0 M0.24 7.16 C1.5 3.92, 3.38 1.98, 4.8 0.08 M-0.41 6.22 C0.96 5.28, 2.21 4, 4.75 -0.01 M-1.02 12.3 C3.14 9.02, 3.83 7.69, 10.3 -0.83 M-0.13 11.8 C3.74 8.6, 6.64 4.42, 11.43 0.19 M1.73 16.45 C3.93 12.51, 9.08 6.69, 14.45 2.24 M-0.48 19.27 C3.52 14.36, 8.2 9.65, 15.52 1.05 M0.23 25.02 C6.51 16.96, 10.83 10.29, 21.96 1.27 M-0.55 24.38 C6.11 16.9, 13 7.15, 20.27 0.69 M-1.75 32.19 C9.47 19.17, 18.94 8.96, 24.64 -0.68 M-0.93 30.46 C5.39 23.77, 10.79 16.33, 26.51 0.15 M0.09 37.74 C8.4 24.64, 19.43 13.35, 30.47 0.37 M0.63 35.93 C9.16 26.38, 17.94 15.14, 31.23 0.29 M0.04 40.73 C12.57 29.4, 22.18 17.68, 35.96 0.49 M-0.14 42.39 C9.35 32.2, 16.58 22.19, 36.16 0.77 M-1.94 47.02 C15.76 30.67, 29.5 11.34, 43.09 1.12 M-0.36 49.72 C12.53 34.52, 26.1 17.84, 41.7 -0.16 M0.08 55.33 C14.5 35.9, 30.04 20.44, 47.73 0.4 M1.26 54.64 C18.09 32.86, 36.97 14.26, 47.29 1.19 M-1.56 60.6 C17.79 39.85, 35.9 21.69, 52.62 -1.56 M0.81 61.6 C19.86 38.98, 39.07 18.15, 53.35 -0.16 M0.15 68 C12.59 51.8, 28.02 36.09, 59.75 0.7 M0.47 67.3 C12.12 53.44, 24.15 39.11, 57.7 0.92 M-1.35 72.52 C21.44 48.66, 41.51 29.66, 63.36 -0.76 M0.15 73.88 C16.09 53.47, 31.33 35.25, 63.4 -0.45 M-0.53 80.54 C19.54 56.18, 38.35 33.61, 70.3 0.08 M0.22 78.93 C18.92 57.18, 38.43 34.44, 69.24 -0.31 M-1.42 85.85 C23.52 56.54, 48.63 29.98, 73.05 0.48 M-0.3 85.13 C24.26 56.34, 49.84 29.96, 73.58 -0.04 M0.76 91.03 C25.45 60.27, 51.46 30.68, 78.1 0.27 M-0.26 92.07 C31.83 54.46, 63.19 19.19, 78.77 0.49 M-2.06 99.45 C24.45 71.12, 49.82 40.4, 86.91 -0.84 M-0.17 97.88 C31.04 63.86, 60.18 29.14, 85.1 -1.22 M-1.13 104.86 C21.9 79.06, 41.29 58.54, 88.35 0.04 M0.48 103.26 C29.7 70.2, 58.16 37.48, 89.16 0.52 M0.88 110.94 C24.45 80.51, 48.05 55.1, 95.64 -1.71 M-1.08 110.65 C37.12 66.42, 75.47 25.34, 95.74 -0.54 M2.11 117.4 C31.76 78.75, 62.75 44.48, 98.74 1.15 M0.36 114.77 C33.9 77, 67.48 37.47, 100.29 0.24 M-1.98 123.24 C32.45 87.19, 64.36 48.02, 105.38 0.94 M0.38 121.46 C39.84 78.89, 76.35 34.86, 106.76 0.21 M1.61 128.85 C21.45 102.57, 47.23 77.46, 109.41 -1.56 M0.19 128.34 C25.85 96.21, 54.51 64.44, 112.06 0.32 M-0.85 135.54 C39.11 90.66, 77.4 46.03, 115.12 0.94 M0.31 133.8 C31.61 96.94, 66.05 57.78, 115.28 -0.32 M-0.07 139.15 C39.59 93.46, 78.18 52.17, 120.96 1.76 M-0.75 141.21 C47.17 86.52, 94.18 32.02, 121.4 0.67 M-1.5 146.06 C25.49 115.38, 50.4 86.58, 125.26 1.89 M-0.2 146.4 C28.3 113.72, 55.59 82.62, 125.93 1.04 M1.02 150.74 C49.64 95.78, 96.75 41.09, 132.49 -1.82 M0.34 151.68 C25.76 123.35, 53 91.86, 133.15 -0.49 M0.06 158.81 C27.02 126.83, 57.41 96.57, 135.91 -0.23 M-0.62 158.94 C46.84 104.69, 93.26 51.18, 137.81 -0.47 M-0.5 162.81 C42.16 116.29, 80.64 71.03, 143.47 0.87 M-0.35 164.67 C36.41 122.19, 71.72 80.54, 143.45 0.03 M-1.33 170.62 C34.38 131.43, 69.24 94.23, 146.72 1.36 M0.27 170.28 C35.55 129.49, 71.83 86.34, 148.35 0.01 M0.4 175.03 C42.69 124.66, 86.41 76.77, 152.35 1.51 M0.34 176.48 C42.42 127.46, 85.79 78.52, 154.12 0.04 M0.47 181.69 C56.59 120.47, 114.51 54.49, 159.05 0.57 M0.26 183.19 C42.08 134.41, 83.48 86.02, 159.27 -0.37 M-1.16 189.44 C64.29 115.09, 129.35 40.09, 164.61 -1.37 M0.03 189.32 C43.02 141.23, 84 92.93, 164.27 0.28 M-1.17 193.98 C49.19 140.87, 95.5 85.54, 170.32 -1.4 M0.38 195.65 C55.5 130.57, 111.05 66.12, 170.03 -0.23 M-1.64 202.49 C62.2 133.97, 122.75 63.92, 174.39 1.24 M-0.29 202 C62.27 128.85, 124.66 55.21, 174.76 0 M-0.81 206.89 C49.97 150.29, 101.02 94.96, 179.4 1.24 M-0.02 207.62 C57.99 140.41, 115.73 74.48, 180.55 -0.15 M1.36 214.73 C48.43 156.86, 97.65 102.71, 186.04 1.23 M0.36 213.78 C45.32 160.6, 89.84 108.96, 185.56 -0.5 M-0.02 219.91 C48.73 163.52, 98.39 107.27, 190.96 1.49 M0.1 219.25 C61.84 148.01, 124.03 76.53, 190.39 -0.08 M1.27 225.99 C71.9 144.89, 144.86 60.91, 196.37 1.11 M0.11 225.4 C60.95 154.43, 121.62 84.01, 196.66 -0.8 M0.62 231.22 C59.31 163.32, 118.86 96.25, 201.4 0.56 M-0.8 231.59 C72.75 147.63, 146.57 62.28, 201.01 -0.16 M-0.9 237.6 C59.64 165.82, 123.02 95.15, 205.76 -0.47 M0.53 237.31 C55.15 174.68, 110.71 112.62, 207.34 0.37 M-0.89 243.37 C63.32 172, 125.07 100.49, 212.8 -0.47 M0.43 244.27 C59.85 177.24, 119.29 108.74, 211.92 -0.01 M0.2 251.46 C85.74 155.11, 167.21 56.57, 216.25 -1.19 M-0.73 249.79 C78.62 158.34, 156.81 67.18, 217.01 0.13 M1.36 255.96 C75.83 168.9, 152.47 83.15, 222.61 0.68 M0.39 256.46 C49.27 198.83, 99.91 139.64, 223.06 0.53 M-1.13 263.12 C80.46 165.96, 162.88 71.73, 227.26 0.26 M0.46 262.05 C77.31 171.96, 154.89 82.93, 228.45 -0.55 M-0.18 267.99 C83.18 174.08, 163.14 81.09, 233.42 0.83 M0.67 268.27 C93.43 160.44, 185.8 53.6, 232.76 -0.53 M0.72 273.38 C62.26 201.99, 126.2 130.18, 239.19 1.37 M0.5 274.68 C75.13 188.58, 150.32 102.12, 238.34 0.09 M-1.16 280.02 C96.03 167.86, 193.93 57.18, 243.44 1 M-0.49 280.67 C75.39 196.04, 149.27 110.47, 243.65 -0.06 M-0.14 285.93 C82.53 190.32, 164.81 95.42, 249.67 -0.32 M-0.39 286.15 C65.8 210.62, 132.93 133.82, 248.76 0.9 M-0.5 292.16 C53.44 232.32, 106.42 169.66, 255.54 -0.31 M0.26 293.1 C71.33 211.97, 140.73 131.78, 254.09 0.24 M0.28 299.26 C77.03 209.1, 156.15 121.34, 258.72 0.38 M0.05 297.92 C91.99 193.17, 184.9 87.16, 259.73 0.78 M0.08 304.85 C67.35 227.06, 136.64 146.58, 266.17 -0.9 M0.6 304.96 C99.41 190.98, 197.58 76.92, 265.27 -0.04 M-1.12 311.75 C82.98 214.04, 167.85 117.04, 269.36 0.04 M-0.03 310.72 C57.69 245.59, 115.65 178.91, 270.14 -0.06 M-0.06 317.29 C77.93 225.79, 155.65 136.69, 276.43 -1.12 M-0.33 316.85 C76.73 230.74, 151.79 144.36, 275.76 0.2 M0.92 324.17 C58.19 257.98, 117.33 192.09, 281.2 0.52 M-0.51 323.39 C66.84 246.35, 133.95 168.72, 281.19 -0.23 M-0.17 329.37 C102.48 212.07, 201.66 95.89, 285.92 -0.2 M-0.13 328.4 C109.43 202.79, 217.83 77.21, 286.68 -0.29 M-0.22 336.16 C64.62 259.51, 129.03 184.6, 292.14 0.89 M0.17 334.85 C93.15 228.05, 185.68 121.15, 291.39 0.01 M-0.07 341.28 C61.78 273.04, 121.07 204.29, 297.93 0.53 M0.06 341.61 C95.58 230.77, 192.83 120.45, 296.81 -0.24 M-0.22 346.84 C96.83 237.83, 192.65 127.34, 301.64 0.86 M-0.13 347.73 C91.45 242.9, 181.92 138.3, 302.35 0.53 M-0.31 353.36 C95.32 243.58, 192.41 131.05, 308.46 -0.88 M0.26 353.32 C77.06 263.21, 155.84 173.07, 307.19 -0.58 M-0.28 359.97 C70.13 278.49, 140.85 196.66, 313.03 -0.19 M0.6 359.58 C95.15 249.33, 190.51 138.51, 312.29 0.04 M0.6 365.69 C70.95 282.86, 142.68 199.71, 317.57 -0.79 M0.08 366.11 C110.58 238.51, 221.03 110.55, 318.47 -0.02 M-0.54 372.59 C64.48 296.45, 128.89 221.64, 323.33 -0.66 M-0.22 372.02 C77.44 282.02, 155.63 192.53, 323.11 0.09 M0.53 378.17 C74 294.66, 145.93 210.9, 329.09 -0.38 M0.54 377.45 C98.92 264.43, 196.82 151.41, 328.93 -0.06 M-0.34 384.24 C96.88 272.53, 194.77 159.77, 333.47 0.31 M-0.24 384.12 C89.64 280.54, 180.55 176.07, 333.59 0.05 M1.04 390.37 C82.14 296.96, 162.54 204.81, 339.81 -0.56 M0.59 389.63 C78.72 300.5, 156.99 210.45, 339.3 -0.09 M0.55 396.49 C88.23 297.13, 173.97 196.53, 345.22 -0.7 M-0.22 395.86 C119.88 259.56, 239.17 122.65, 344.24 0.27 M-0.93 402.98 C127.53 255.63, 256.58 107.86, 349.88 0.95 M0.13 402.42 C132.94 248.71, 267.38 94.65, 349.77 0.26 M0.35 407.79 C81.54 314.56, 162.86 222.23, 355.73 0.55 M-0.04 408.02 C99.32 292.35, 199.18 176.61, 355.16 -0.04 M0.16 414.08 C126.83 268.06, 252.12 124.07, 359.58 0.98 M-0.15 414.68 C83.71 319.1, 167.34 222.68, 359.89 0.21 M-0.37 420.57 C100.54 303.1, 203.18 184.97, 366.37 0.68 M-0.41 420.78 C98.14 307.76, 198.49 192.88, 365.67 0.06 M0.85 425.98 C99.75 308.98, 202.5 192.19, 371.01 1 M0.09 426.81 C134.64 271.6, 270.03 115.61, 370.69 0.34 M-0.11 432.59 C97.4 318.86, 195.78 206.9, 377.08 -0.88 M0.11 432.79 C143.01 265.87, 287.34 100.59, 376.29 -0.43 M0.14 438.29 C111.06 311.06, 222.03 183.04, 381.89 0.17 M-0.16 438.95 C150.08 263.95, 300.89 90.53, 381.23 -0.05 M0.47 445.52 C126.52 299.05, 253.7 153.49, 387.18 0.55 M0 445.25 C98.86 332.88, 196.21 220.57, 386.74 0.01 M-1.04 451.75 C114.04 319.91, 227.7 187.91, 392.16 0.05 M-0.16 451.28 C101.55 333.61, 204.67 214.72, 392.38 -0.15 M0.35 457.86 C94.88 348.35, 190.96 238.46, 397.81 -0.4 M0.23 456.87 C157.05 278.75, 312.91 99.76, 397.94 0.18 M0.39 462.88 C89.08 361.58, 179.73 258.47, 403.13 0.6 M0 463.84 C134.86 310.42, 267.4 157.29, 402.43 0.35 M-0.12 469.72 C105.66 349.56, 211.14 227.86, 407.86 -0.62 M-0.05 469.09 C120.62 333.6, 238.53 197.84, 408.44 -0.21 M0.12 475.66 C158.41 292.82, 317.86 109.77, 413.5 -0.59 M-0.11 475.79 C116.91 343.01, 233.97 208.8, 413.08 0.03 M-0.64 482.81 C100.9 364.82, 203.04 248.95, 419.63 -0.64 M-0.53 482.38 C128.28 334.39, 256.28 187.91, 418.77 -0.19 M-0.49 488.12 C139.6 327.37, 277.52 167.35, 423.36 0.47 M0.11 487.64 C97.74 379.07, 193.4 268.14, 424.2 0.19 M-0.75 493.35 C157.17 314.19, 311.94 135.17, 430.01 -0.55 M0.07 494.45 C158.72 310.64, 317.42 127.3, 429.48 -0.27 M0.88 500.32 C152.92 322.02, 306.37 145.66, 434.98 0.6 M0.5 500.02 C173.86 300.7, 345.52 102.7, 434.31 0.41 M0.86 504.71 C164.79 316.13, 330.62 125.98, 440.86 -0.84 M0.32 505.19 C130.03 360.35, 258.21 212.96, 439.93 -0.46 M6.27 505.13 C101.9 395.13, 198.39 284.59, 445.63 -0.19 M6.38 504.83 C113.87 382.59, 221.78 258.07, 444.92 -0.25 M11.29 504.88 C169.3 325.27, 325.63 147.14, 450.23 0.02 M11 505.05 C118.98 379.51, 227.41 254.32, 451.08 -0.7 M16.25 504.14 C113.83 393.2, 210.76 282.69, 456.36 0.55 M16.67 504.78 C174.72 326.65, 331.15 146.76, 456.12 0.4 M22.41 504.58 C180.4 321.82, 341.22 136.59, 461.18 -0.03 M21.65 505.44 C150.16 358.57, 278.85 210.6, 461.1 -0.42 M26.74 505.52 C168.87 342.67, 310.62 180.97, 466.4 0.44 M27.44 505.24 C172.79 340.51, 317.07 175.05, 466.26 0.01 M32.51 504.81 C199.74 313.83, 365.32 123.4, 470.68 -0.28 M32.26 505.15 C146.04 375.37, 258.32 246.82, 471.5 0.2 M37.62 504.57 C139.45 387.06, 240.65 272.44, 477.18 -0.43 M38.52 504.79 C166.2 358.9, 291.68 214.32, 477.05 0.15 M43.65 505.76 C200.26 322.7, 358.97 139.98, 482.66 0.53 M43.04 505.25 C145.36 386.34, 247.53 268.67, 482.17 -0.01 M48.95 504.22 C182.65 352.23, 314.6 199.86, 488.32 -0.41 M48.57 504.92 C217.28 309.54, 386.19 115.69, 487.62 0.25 M54.5 504.46 C227.07 307.54, 399.68 108.79, 492.07 -0.08 M54 505.53 C183.84 354.24, 315.97 203.33, 492.64 0.17 M59.54 505.33 C169.59 378.08, 279.4 250.05, 498.41 -0.22 M58.8 505.55 C184.77 357.75, 312.64 210.9, 498.11 -0.34 M64.31 505.15 C214.8 330.56, 366.38 156.49, 502.71 0.68 M64.54 504.85 C152.05 403.34, 241.36 300.31, 503.51 0.07 M68.75 506.15 C173.79 382.66, 280.87 260.17, 509.05 -0.54 M69.58 505.64 C202 351.87, 335.36 198.37, 509.27 -0.37 M75.33 505.67 C246.66 307.44, 419.35 110.58, 514.55 -0.37 M74.7 504.78 C190.98 371.46, 306.6 238.97, 513.77 -0.08 M79.74 505.97 C251.69 309.84, 421.12 114.94, 519.21 0.31 M80.13 505.7 C185.63 383.27, 292.28 260.59, 519.66 -0.31 M85.57 504.68 C225.08 345.44, 363.61 186.1, 524.57 -0.43 M85.48 505.17 C205.25 366.94, 326.05 228.82, 524.44 0.46 M90.14 506.17 C200.12 377.91, 309.75 252.24, 530.84 -0.72 M90.73 505.19 C245.63 329.3, 399.61 153.21, 530.02 -0.35 M96.05 505.65 C267.03 308.46, 437.69 110.68, 535.52 0.53 M96.14 505.37 C184.84 401.18, 273.01 299.1, 534.9 0.11 M101.76 505.32 C255.04 327.3, 409.38 150.56, 540.11 0.48 M100.87 505.25 C273.21 307.9, 445.05 110.43, 540.52 0.04 M106.77 504.87 C241.17 352.65, 374.29 199.57, 545.55 0.55 M106.9 504.63 C235.31 360.33, 361.73 214.31, 545.8 0.17 M111.79 504.81 C225.37 375.32, 339.09 244.41, 550.95 0.07 M112.04 505.12 C269.49 324.57, 427.45 142.85, 551.13 0.07 M117.51 505.02 C218.58 390.47, 317.93 273.87, 556.99 -0.32 M117.82 504.88 C272.14 329.53, 424.95 153.53, 556.14 0.48 M123.21 504.85 C251.87 357.76, 380.57 209.59, 561.48 -0.19 M122.53 504.95 C281.33 322.33, 442.26 137.95, 562.03 -0.35 M128.66 504.83 C286.92 324.33, 443.56 143.45, 567.56 0.8 M128.33 504.76 C245.81 368.49, 363.3 232.73, 566.96 -0.29 M132.79 505.25 C233.01 390.15, 332.53 275.32, 572.83 -0.14 M133.45 505.34 C284.02 330.18, 436.33 154.7, 572.4 -0.23 M138.77 504.61 C303.88 317.52, 466.62 130.34, 577.57 0.77 M138.51 504.79 C273.54 348, 408.61 192.19, 577.7 -0.12 M143.09 504.63 C312.55 311.14, 481.57 116.57, 582.83 0.36 M143.52 505.44 C304.81 321.17, 464.73 138.15, 582.57 0.5 M150.2 505.49 C307.18 324.54, 464 143.01, 589.1 -0.72 M149.41 504.59 C239.4 402.28, 329.04 298.52, 588.19 0.28 M153.65 504.44 C303.15 330.98, 452.17 158.63, 592.68 0.81 M154.24 504.86 C287.21 353.44, 418.5 202.26, 593.05 0.69 M160.29 505.43 C296.28 350.51, 431.54 194.63, 598.85 -0.35 M160.3 504.88 C276.25 369.44, 392.26 236.05, 599.08 0.28 M165 504.93 C260.71 391.97, 358.98 278.84, 603.8 0.56 M164.74 504.89 C323.69 324.49, 481.92 142.01, 604.19 0.6 M170.16 504.78 C262.16 399.1, 352.87 294.19, 610.08 -0.02 M170.67 504.65 C290.31 370.5, 408.76 234.11, 609.83 -0.23 M176.27 505.96 C267.41 401.09, 358.06 295.78, 614.86 -0.17 M175.36 504.96 C340.41 312.12, 507.77 119.55, 614.39 0 M180.06 506.26 C334.33 327.64, 489.56 149.76, 620.65 0.4 M180.73 505.57 C343.55 315.84, 507.95 126.74, 619.9 -0.48 M185.96 504.62 C284.25 390.26, 383.69 274.84, 625.11 -0.33 M186.42 505.35 C324.54 347.75, 460.56 190.94, 625.46 0.15 M191.21 504.75 C294.35 388.16, 396.42 269.37, 630.2 -0.95 M191.28 505.32 C283.71 400.18, 374.43 295.38, 630.75 -0.01 M197.56 505.58 C312.9 371.88, 427.42 240.25, 635.18 -0.49 M197.06 505.26 C341.55 339.65, 485.8 174.04, 635.83 0.22 M202.65 505.4 C308.13 378.99, 417.62 253.83, 640.96 -0.71 M201.78 505.74 C362.71 319.16, 524.42 132.92, 641.47 0.15 M207.56 504.36 C315.18 382.63, 421.68 259.78, 646.31 -0.38 M207.25 504.77 C355.23 336.48, 501.71 166.98, 646.53 0.06 M213.04 505.43 C383.56 309.24, 553.28 112.8, 652.16 -0.73 M212.51 505.41 C360.79 337.02, 507.68 168.54, 652.32 -0.55 M217.43 505.67 C375.68 324.07, 534.13 141.83, 657.89 0.26 M218.12 505.25 C328.78 375.6, 440.83 246.52, 656.78 -0.17 M222.46 505.25 C377.37 327.05, 534.33 147.06, 662.4 -0.82 M222.79 505.61 C378.29 325.4, 533.86 147.09, 662.79 -0.17 M229.61 505.04 C380.5 328.08, 532.71 154.39, 668.34 -0.67 M228.45 504.99 C376.58 336.1, 524.63 165.69, 667.62 0.37 M233.14 506.09 C343.43 377.53, 452.98 252.49, 673.67 0.41 M233.72 505.11 C385.38 329.53, 537.85 153.97, 673.58 -0.26 M238.77 505.61 C411.88 307.68, 581.62 110.16, 679.05 -0.49 M239.8 505.15 C348.24 379.81, 458.15 253.1, 678.3 0.41 M243.93 506 C361.85 371.66, 480.73 235.92, 684.16 -0.04 M244.64 505.37 C336.05 396.81, 428.93 288.77, 683.79 -0.69 M250.12 504.52 C351.05 390.63, 450.94 273.8, 688.78 -0.49 M249.73 504.58 C422.56 306.74, 593.74 109.73, 689.07 0.2 M255.86 505.45 C352.64 394.06, 447.8 283.67, 693.84 -0.76 M255.06 505.34 C395.99 347.23, 535.19 186.87, 694.51 -0.03 M261.09 504.95 C374.46 376.15, 487.45 247.28, 699.3 -0.34 M261.04 505.05 C424.18 316.19, 589.37 125.74, 699.99 0.24 M264.94 504.89 C352.77 404.46, 439.59 304.06, 699.35 6.87 M265.92 505.09 C353.05 406.11, 440.51 306.12, 699.35 6.03 M271.69 504.07 C363.37 400.49, 454.61 294.49, 698.61 12.33 M271.7 505.19 C421.69 332.05, 570.18 161.01, 699.37 13 M275.77 505.62 C414.37 348.3, 550.76 190.55, 699.96 17.99 M275.95 505.34 C398 365.59, 517.98 227.97, 699.55 18.81 M282.1 505.08 C404.85 362.67, 528.2 221.33, 699.06 25.06 M281.71 504.95 C394.59 373.84, 507.42 243.73, 699.08 24.8 M286.33 505.74 C449.22 318.22, 611.58 131.86, 699.19 30.77 M286.91 505.55 C430.32 338.28, 575.77 171.52, 699.62 30.32 M291.26 505.92 C393.24 389.48, 493.57 273.84, 699.51 37.38 M292.02 505.91 C388.05 394.71, 483.22 285.06, 699.55 37.01 M296.81 505.74 C384.37 405.99, 472.36 305.12, 698.7 42.62 M297.54 505.03 C407.57 382.28, 515.08 257.63, 699.23 43.12 M301.85 505.11 C407.76 386.92, 512.24 265.49, 699.28 49.66 M302.73 505.51 C441.14 346.48, 578.79 187.14, 699.27 48.91 M308.76 504.56 C427.89 365.16, 548.02 226.28, 699.91 55.51 M308 505.02 C415.63 382.35, 521.8 260.14, 699.23 55.21 M313.97 505.43 C429.89 373.08, 544.55 240.89, 699.22 62.23 M313.6 505.11 C410.93 395.05, 506.27 284.07, 698.65 62.07 M319.53 505.12 C461.21 339.84, 604.36 174.98, 699.27 66.89 M318.65 505.04 C419.91 387.62, 522.23 270.24, 699.71 67.33 M323.75 505.31 C453.84 355.26, 584.29 205.09, 698.71 73.18 M323.84 505.82 C471.28 336.68, 619.46 166.57, 699.12 73.66 M329.47 505.58 C418.59 404.46, 507.11 303.3, 699.64 78.65 M329.67 504.89 C457.19 358.64, 583.67 212.31, 699.8 79.56 M334.74 505.21 C466.63 352.13, 601.81 198.25, 698.99 85.28 M334.29 505.67 C467.5 350.11, 601.22 195.68, 699.51 85.41 M339.5 504.88 C451.7 378.8, 560.55 250.73, 698.65 91.48 M339.83 505.09 C429.87 401.06, 519.37 297.62, 699.23 92.44 M345.85 505.2 C470.97 361.25, 597.64 215.48, 700.12 97.34 M345.38 505.55 C476.82 353.29, 609.6 200.51, 699.13 97.8 M350.34 505.21 C455.54 385.43, 558.48 265.33, 698.46 104.18 M350.91 504.83 C462.91 376.61, 574.97 248.06, 698.84 104.33 M355.4 505.75 C450.1 396.6, 542.84 288.84, 699.54 110.61 M355.92 505.66 C472.43 370.61, 590.71 235.33, 699.9 109.6 M361.67 504.74 C474.13 374.9, 586.53 245.4, 699.46 115.86 M361.71 504.81 C482.8 365.36, 604.16 226.23, 699.56 116.34 M366.66 505.35 C473.85 384.41, 580.96 260.66, 698.64 122.27 M365.98 505.09 C440.92 418.65, 516.07 332.94, 698.88 123.04 M371.4 504.88 C447.14 418.15, 522.22 331.98, 698.89 128.46 M371.6 505.22 C482.61 377.93, 593.08 251.27, 699.77 128.15 M377.55 504.48 C459.6 409.48, 544.4 313.58, 699.78 134.48 M377.2 505.44 C473.77 395.57, 570.32 285.08, 699.32 134.74 M382.81 504.61 C446.75 429.78, 512.46 354.27, 698.92 140.35 M382.61 504.52 C481.96 390.93, 580.01 277.31, 699.85 140.72 M387.69 504.91 C482.21 399.1, 577 291.23, 699.9 146.9 M387.62 505.58 C469.27 411.09, 551.21 317.61, 699.04 147.17 M392.42 504.57 C511.22 365.77, 630.81 228.16, 699.03 152.6 M393.35 504.72 C485.57 398.73, 577.92 292.55, 698.63 153.43 M397.67 505.63 C460.73 433.21, 521.68 362.92, 698.59 159.2 M398.56 505.23 C500.02 390.32, 600.88 273.36, 699.26 158.49 M404.3 504.62 C496.96 400.7, 586.33 296.35, 698.96 165.54 M404.25 504.42 C465.51 435.72, 525.45 366.53, 699.23 165.52 M408.55 504.88 C520.64 378.76, 631.45 251.87, 699.04 170.99 M409.21 505.61 C516.35 381.94, 623.9 258.37, 699.26 170.8 M414.41 505.32 C523.98 380.63, 632.62 256.28, 699.41 176.63 M413.96 506.02 C498.39 408.51, 582.3 312.36, 699.16 176.81 M418.68 505.2 C530.76 378.24, 642.36 249.83, 699.05 183.58 M419.62 505.23 C513.02 398.6, 605.21 293.23, 698.79 183.11 M424.99 506.03 C491.07 429.31, 557.21 356, 700.16 189.85 M424.25 505.57 C508.71 407.97, 593.93 310.12, 698.86 188.95 M430.73 504.82 C504.17 421.19, 578 337.01, 699.91 196.2 M430.4 505.13 C487.93 438.59, 544.75 372.49, 699.43 195.45 M436.2 506.31 C489.89 441.78, 544.25 377.94, 700.06 201.65 M434.81 505.81 C534.12 394.56, 632.49 281.42, 699.99 201.83 M440.08 504.45 C534.21 395.13, 627.58 288.73, 699.48 207.03 M441.16 505.58 C525.3 407.18, 611.92 307.58, 698.79 208.03 M445.2 505.93 C501.84 442.01, 559.63 376.37, 699.71 214.99 M446.31 505.44 C514.04 428.42, 581.31 350.36, 698.59 214.41 M451.17 504.39 C527.02 419.99, 601.94 333.8, 700.48 220.27 M450.84 505.2 C509.5 438.88, 566.93 372.97, 699.36 219.38 M455.65 504.61 C533.26 416.39, 611.63 328.99, 698.54 226.68 M456.81 505.82 C545.2 404.73, 632.99 302.89, 699.45 225.66 M463.26 505.63 C521.48 438.02, 580.87 369.79, 699.53 232.08 M461.94 505.03 C549.79 403.38, 636.48 302.85, 699.39 231.38 M467.73 505.97 C540.42 419.18, 612.91 332.89, 699.09 237.47 M466.87 505.8 C535.5 426.57, 603.94 346.89, 698.96 237.72 M473.14 506.06 C526.04 444.37, 580.37 384.62, 699.52 243.96 M472.88 504.51 C526.72 443.27, 579.64 382.03, 698.44 244.89 M478.57 506.2 C559.28 412.88, 640.8 317.59, 698.77 250.73 M478.23 505.89 C538.32 433.44, 600.87 361.65, 699 249.69 M484.22 503.9 C529.97 451.29, 579.34 394.82, 698.72 256.69 M483.13 504.47 C533.34 445.97, 584.6 386.46, 698.46 256.93 M488.61 505.02 C529.25 455.96, 571.67 406.52, 700.41 261.36 M487.67 505.08 C569.6 407.44, 653.19 311.66, 699.73 262.76 M495.12 504.97 C546.28 445.98, 597.37 386.27, 698.22 268.01 M494.24 505.36 C538.35 455.76, 582.23 405.01, 699.16 268.51 M498.01 505.08 C550.1 445.19, 602.33 386.01, 699.76 276.48 M498.34 505.64 C558.03 436.56, 618.58 367.81, 699.2 274.88 M503.11 504.94 C558.99 439.59, 615.81 377.68, 698.22 281.83 M505.05 504.92 C565.34 434.12, 626.85 363.27, 699.91 281.2 M508.07 504.95 C578.74 421.91, 649.98 340.68, 700.32 286.22 M509.8 505.49 C572.76 434.08, 635.24 361.81, 699.52 286.76 M514.6 504.2 C580.86 430.4, 647.21 353.04, 698.51 293.51 M515.01 504.51 C576.31 435.93, 636.17 366.61, 699.56 292.79 M519.87 506.1 C571.77 444.91, 623.85 384.78, 699.66 298.07 M519.54 505.92 C588.69 424.61, 658.56 345.03, 699.38 298.75 M525.57 504.76 C571.15 455.03, 615.78 402.67, 699.35 306.38 M524.45 505.1 C584.95 434.02, 646.31 363.35, 699.73 306.01 M529.36 505.41 C590.59 435.81, 651.31 365.23, 699.35 312.56 M530 504.95 C572.11 457.59, 613.19 410.76, 698.86 311.42 M537.13 505.77 C602.11 430.75, 666.05 355.07, 699.4 318.69 M534.97 504.77 C586.39 444.32, 639.74 383.42, 699.05 317.33 M541.49 506.01 C576.21 464.69, 612.26 426.78, 699.9 324.44 M541.85 504.3 C584.97 455.74, 626.88 407.69, 699.76 323.91 M547.09 506.21 C604.09 440.82, 659.87 373.72, 699.59 329.21 M546.29 505.71 C589.64 457.57, 632.58 408.53, 699.29 330.06 M552.8 506.34 C598.48 450.74, 642.41 396.24, 698.22 334.55 M552.88 505.67 C590.72 461.64, 629.45 416.1, 699.15 335.36 M557.63 506.7 C588.26 467.4, 619.52 432.74, 697.78 342.71 M556.19 505.39 C600.38 455.94, 643.25 407.59, 699.31 342.46 M562.47 504.63 C592.47 472.65, 619.27 441.57, 698.58 349.5 M561.91 504.56 C595.44 467.31, 629.55 428.29, 699.34 347.94 M566.24 505.29 C609.5 456.54, 653.32 407.26, 700.08 352.05 M567.6 504.73 C619.78 446.73, 670.5 386.63, 700.08 354.17 M574.69 504.38 C600.57 473.34, 627.61 443.26, 700.57 360.07 M573.6 504.75 C606.79 463.58, 642.35 424.02, 699.93 360.45 M577.89 506.36 C613.66 460.64, 654.11 419, 697.26 364.6 M579.27 506 C621.6 456.17, 665.45 406.51, 699.78 366.16 M585.75 506.06 C609.05 472.4, 635.47 443.13, 698.71 370.95 M583.19 505.68 C608.74 477.4, 633.14 449.05, 699.14 372.64 M589.25 504.02 C634.4 457.49, 675.84 406.86, 698.16 377.36 M589.52 506.05 C627.86 458.84, 667.37 413.64, 698.64 378.96 M593.2 503.77 C624.17 470.95, 651.47 436.28, 699.87 382.87 M593.89 504.17 C632.24 461.39, 670.33 418.43, 700.25 383.58 M600.71 507.17 C637.74 459.28, 678.96 416.77, 697.58 388.68 M599.81 504.71 C635.74 464.22, 671.38 423.4, 698.73 390.2 M606.07 503.69 C633.18 471.18, 662.5 435.35, 700.77 398.15 M604.54 505.85 C623.61 482.98, 643.45 459.99, 699.87 397.33 M611.27 505.76 C635.72 472.83, 663.21 440.83, 700.4 402.4 M609.58 506.09 C632.75 479.69, 655.3 453.66, 699.19 402.41 M614.86 506.03 C641.53 475.8, 665.37 445.42, 700.6 407.88 M616.49 504.08 C643.5 471.94, 671.66 439.83, 699.62 408.91 M620.43 504.75 C651.48 471.77, 680.57 437.8, 698.97 414.4 M621.33 505.53 C646.83 476.19, 672.78 444.8, 698.72 414.89 M625.53 503.02 C645.9 480.72, 669.81 453.77, 699.02 422.46 M626.59 504.96 C647.71 481.61, 667.47 458.32, 699.13 421.86 M630.13 506.16 C645.84 489.63, 659.07 472.16, 698.44 427.31 M631.55 504.63 C650.42 483.15, 667.88 462.68, 699.83 427.4 M637.54 504.95 C660.63 476.86, 682.05 452.14, 700.83 434.53 M636.22 504.32 C652.98 488.19, 667.4 470.4, 699.75 432.19 M642.82 507.02 C656.44 489.81, 671.1 476.75, 697.41 437.57 M641.74 504.21 C659.27 485.55, 677.16 465.77, 698.55 440.18 M645.12 506.86 C662.15 488.88, 673.66 473.47, 701.31 445.8 M647.63 505.46 C659.68 491.79, 670.56 477.01, 698.8 446.13 M651.36 505.4 C664.38 489.8, 675.71 478.75, 697.98 449.88 M653.45 505.32 C662.38 491.57, 674.05 479.25, 699.44 451.48 M657.97 503.59 C670.38 491.27, 682.95 472.1, 699.52 457.74 M657.53 505.19 C670.34 492.67, 680.75 478.27, 699.99 457.93 M665.13 506.41 C676.26 488.64, 688.24 477.43, 698.36 464.23 M663.19 504.25 C672.88 494.43, 682.09 483.65, 699.24 463.52 M667.27 504.25 C674.83 496.6, 683.06 488.61, 698.99 470.61 M668.19 505.29 C676.06 496.87, 683.27 488.46, 698.99 469.77 M675.96 504.16 C682.66 495.34, 688.55 486.8, 698.24 474.65 M673.55 505.53 C681.1 495.6, 689.7 486.42, 699.21 476.24 M678.35 507.24 C685.59 496.86, 690.44 492.38, 697.73 481.94 M679.05 504.52 C682.99 499.67, 687.91 495.82, 698.54 481.37 M684.14 503.84 C687.67 499.33, 693.91 495.1, 700.13 487.95 M684.08 504.92 C688.69 499.92, 695.09 493.51, 699.46 489.09 M688.39 506.58 C693.05 503.12, 695.05 501.01, 700.52 493.68 M689.2 504.64 C692.91 502.56, 695.2 498.78, 699.88 493.94 M695.6 504.57 C696.93 503.59, 697.46 501.93, 698.81 499.93 M694.98 504.81 C696.03 504.1, 696.98 502.88, 698.99 500.62" stroke="#ffffff" stroke-width="0.5" fill="none"></path><path d="M-0.68 0.07 C153.66 1.9, 307.68 1.87, 698.64 0.23 M-0.13 0.31 C265.91 -1.26, 532.71 -0.94, 698.85 -0.39 M698.38 -0.07 C700.1 170.87, 700.13 342.15, 698.34 504.64 M698.86 0.33 C699.25 153.88, 699.34 308.05, 699.27 504.19 M698.5 503.84 C454.04 506.06, 210.35 507, 0.64 504.27 M698.63 504.79 C505.87 506.63, 313.09 506.63, -0.07 504.65 M0.16 503.8 C0.19 325.15, 0.66 146.35, 0.04 0.25 M-0.14 504.11 C0.24 379.05, 0.41 253.69, -0.4 0.04" stroke="#1e1e1e" stroke-width="1" fill="none"></path></g><g stroke-linecap="round" transform="translate(319.10717093692074 132.4273467614114) rotate(0 192.16643170845418 249.2543091308611)"><path d="M0.55 -1.91 L384.43 1.31 L383.41 497.98 L0.18 497.86" stroke="none" stroke-width="0" fill="#ffffff"></path><path d="M0.12 0.63 C95.82 0.4, 189.71 0.15, 385.29 0.41 M-0.39 -0.08 C132.4 -1.35, 263.68 -2.33, 384.57 0.39 M384.21 -0.44 C382.95 163.45, 382.49 327.94, 384.38 498.69 M384.25 -0.23 C384.19 107.36, 384.56 214.71, 384.53 498.25 M383.69 497.85 C241.93 497.34, 99.61 496.26, -0.28 497.53 M384.31 498.59 C240.98 500.18, 96.93 500.31, 0.32 498.55 M0.31 497.88 C0.39 325.46, -0.35 154.05, -0.41 -0.17 M-0.2 498.51 C0.68 350.92, 0.31 203.13, -0.13 0.24" stroke="#2f9e44" stroke-width="4" fill="none"></path></g><g stroke-linecap="round"><g transform="translate(698.9145083078984 449.1667444440086) rotate(0 -187.69545100888354 1.124917919527718)"><path d="M0.8 0.59 C-116.37 2.05, -231 2.61, -375.84 1.21 M0.54 0.41 C-141.8 -0.29, -283.24 1.31, -376.19 1.21" stroke="#9c36b5" stroke-width="4" fill="none"></path></g></g><mask></mask><g stroke-linecap="round"><g transform="translate(510.17346199583335 452.2235868018888) rotate(0 0.48700691570684285 143.39207326714)"><path d="M-0.48 0.43 C2.45 102.03, 1.7 202.52, 0.62 286.64 M-0.07 -0.74 C2.08 83.06, 1.84 164.63, -0.6 287.53" stroke="#9c36b5" stroke-width="4" fill="none"></path></g><g transform="translate(510.17346199583335 452.2235868018888) rotate(0 0.48700691570684285 143.39207326714)"><path d="M-11.04 259.75 C-5.15 269.82, -2.44 278.49, 0.93 286.2 M-10.51 258.19 C-6.95 267.91, -4.24 274.74, -0.69 287.37" stroke="#9c36b5" stroke-width="4" fill="none"></path></g><g transform="translate(510.17346199583335 452.2235868018888) rotate(0 0.48700691570684285 143.39207326714)"><path d="M9.47 260.08 C8.13 270.14, 3.59 278.69, 0.93 286.2 M10.01 258.52 C7.68 268.28, 4.5 275.02, -0.69 287.37" stroke="#9c36b5" stroke-width="4" fill="none"></path></g></g><mask></mask><g transform="translate(442.10827406204044 763.0555889817726) rotate(0 70.3125 12)"><text x="0" y="0" font-family="Cascadia, Segoe UI Emoji" font-size="20px" fill="#f08c00" text-anchor="start" style="white-space: pre;" direction="ltr" dominant-baseline="text-before-edge">Client Width</text></g><g stroke-linecap="round"><g transform="translate(857.2323634899149 304.2501101218452) rotate(0 -344.65276649216685 0.982615201216305)"><path d="M0.34 -0.26 C-225.97 1.07, -453.27 2.97, -688.89 1.92 M0.12 -0.26 C-138.84 2.16, -277.82 2.58, -689.65 1.71" stroke="#9c36b5" stroke-width="4" fill="none"></path></g></g><mask></mask><g stroke-linecap="round"><g transform="translate(235.19711839342563 305.24701937529426) rotate(0 1.2160573300252508 191.8501017284766)"><path d="M0.91 -0.79 C1.63 129.54, 3.38 256.86, 1.22 384.49 M-0.05 -0.09 C1.21 140.53, 2.07 280.79, 2.48 384.05" stroke="#9c36b5" stroke-width="4" fill="none"></path></g><g transform="translate(235.19711839342563 305.24701937529426) rotate(0 1.2160573300252508 191.8501017284766)"><path d="M-6.38 354.58 C-4.57 367.15, 0.51 374.59, 0.51 384.84 M-8 355.75 C-4.57 366.16, -0.78 375.9, 2.65 384.11" stroke="#9c36b5" stroke-width="4" fill="none"></path></g><g transform="translate(235.19711839342563 305.24701937529426) rotate(0 1.2160573300252508 191.8501017284766)"><path d="M14.14 354.48 C9.08 367.01, 7.3 374.49, 0.51 384.84 M12.52 355.65 C8.44 365.97, 4.71 375.74, 2.65 384.11" stroke="#9c36b5" stroke-width="4" fill="none"></path></g></g><mask></mask><g transform="translate(169.6491796889968 713.5971650652561) rotate(0 70.3125 12)"><text x="0" y="0" font-family="Cascadia, Segoe UI Emoji" font-size="20px" fill="#f08c00" text-anchor="start" style="white-space: pre;" direction="ltr" dominant-baseline="text-before-edge">Scroll Width</text></g><g stroke-linecap="round"><g transform="translate(24.83011752335733 72.3801730020499) rotate(0 549.0691959317537 0.6340451618515459)"><path d="M0.53 0.23 C318.85 -1.21, 638.6 -0.97, 1097.95 1.62 M0.09 -0.34 C253.89 0.57, 507.75 0.49, 1098.05 1.92" stroke="#9c36b5" stroke-width="4" fill="none"></path></g><g transform="translate(24.83011752335733 72.3801730020499) rotate(0 549.0691959317537 0.6340451618515459)"><path d="M1071.16 12.69 C1076.86 8.86, 1086.03 4.98, 1097.82 0.78 M1070.06 11.27 C1076.27 10.56, 1082.66 6.82, 1098.07 1.53" stroke="#9c36b5" stroke-width="4" fill="none"></path></g><g transform="translate(24.83011752335733 72.3801730020499) rotate(0 549.0691959317537 0.6340451618515459)"><path d="M1071.2 -7.83 C1076.69 -5.69, 1085.85 -3.6, 1097.82 0.78 M1070.1 -9.25 C1076.34 -5.21, 1082.72 -4.21, 1098.07 1.53" stroke="#9c36b5" stroke-width="4" fill="none"></path></g></g><mask></mask><g transform="translate(94.72652184335675 10) rotate(0 480.46875 12)"><text x="0" y="0" font-family="Cascadia, Segoe UI Emoji" font-size="20px" fill="#f08c00" text-anchor="start" style="white-space: pre;" direction="ltr" dominant-baseline="text-before-edge">Scroll Direction In LTR (default direction) will lead to positive "scrollPosition"</text></g><g stroke-linecap="round"><g transform="translate(10.697131612929297 900.048730466555) rotate(180.71919859594394 548.8626506808596 -4.629680518567284)"><path d="M-0.68 -0.1 C182.06 -2.7, 364.53 -4.16, 565.24 -7.08 M0.22 0.38 C145.27 -3.06, 290.48 -4.86, 565.26 -6.34 M565.88 -6.82 C692.21 -6.36, 818.99 -5.84, 1098.4 -9.64 M565.38 -6.55 C771.75 -7.78, 977.48 -8.33, 1098.26 -8.6" stroke="#9c36b5" stroke-width="4" fill="none"></path></g><g transform="translate(10.697131612929297 900.048730466555) rotate(180.71919859594394 548.8626506808596 -4.629680518567284)"><path d="M1068.41 1.49 C1078.39 -2.56, 1087.77 -4.31, 1097.9 -10.01 M1070.64 2.68 C1077.2 -1.42, 1084.18 -4.4, 1097.93 -8.18" stroke="#9c36b5" stroke-width="4" fill="none"></path></g><g transform="translate(10.697131612929297 900.048730466555) rotate(180.71919859594394 548.8626506808596 -4.629680518567284)"><path d="M1068.35 -19.03 C1078.5 -16.47, 1087.9 -11.59, 1097.9 -10.01 M1070.59 -17.84 C1077.3 -16.67, 1084.3 -14.37, 1097.93 -8.18" stroke="#9c36b5" stroke-width="4" fill="none"></path></g></g><mask></mask><g transform="translate(188.80663801812625 839.9774052272463) rotate(0 363.28125 12)"><text x="0" y="0" font-family="Cascadia, Segoe UI Emoji" font-size="20px" fill="#f08c00" text-anchor="start" style="white-space: pre;" direction="ltr" dominant-baseline="text-before-edge">Scroll Direction In RTL will lead to negative "scrollPosition"</text></g></svg>